<svg width="17" height="16" viewBox="0 0 17 16" xmlns="http://www.w3.org/2000/svg"><title>heart</title><path d="M15.559 1.39C14.836.513 13.822.07 12.503 0c-1.348 0-2.348.583-3.057 1.39-.708.805-1.083 1.277-1.111 1.388-.028-.11-.389-.583-1.111-1.389C6.5.583 5.598 0 4.168 0 2.848.07 1.82.528 1.11 1.39.39 2.236.028 3.166 0 4.167c0 .722.125 2.111.93 3.709.806 1.597 3.251 4.084 7.405 7.404 4.14-3.32 6.626-5.793 7.418-7.404.792-1.612.917-3.015.917-3.71-.028-1-.389-1.93-1.111-2.806v.028z" fill="#EE4141"/></svg>