<svg version="1.1" viewBox="0.0 0.0 762.0 775.0" fill="none" stroke="none" stroke-linecap="square" stroke-miterlimit="10" xmlns:xlink="http://www.w3.org/1999/xlink" xmlns="http://www.w3.org/2000/svg"><clipPath id="p.0"><path d="m0 0l762.0 0l0 775.0l-762.0 0l0 -775.0z" clip-rule="nonzero"/></clipPath><g clip-path="url(#p.0)"><path fill="#000000" fill-opacity="0.0" d="m0 0l762.0 0l0 775.0l-762.0 0z" fill-rule="evenodd"/><path fill="#000000" fill-opacity="0.0" d="m220.5394 321.599l-0.14758301 6.3272705" fill-rule="evenodd"/><path stroke="#cccccc" stroke-width="4.0" stroke-linejoin="round" stroke-linecap="butt" d="m220.5394 321.599l-0.14758301 6.3272705" fill-rule="evenodd"/><path fill="#000000" fill-opacity="0.0" d="m170.32051 447.21155l-0.042160034 7.051605" fill-rule="evenodd"/><path stroke="#cccccc" stroke-width="4.0" stroke-linejoin="round" stroke-linecap="butt" d="m170.32051 447.21155l-0.042160034 7.051605" fill-rule="evenodd"/><path fill="#000000" fill-opacity="0.0" d="m246.34053 325.97937l0.08433533 66.74524" fill-rule="evenodd"/><path stroke="#cccccc" stroke-width="4.0" stroke-linejoin="round" stroke-linecap="butt" d="m246.34053 325.97937l0.08433533 66.74524" fill-rule="evenodd"/><path fill="#000000" fill-opacity="0.0" d="m281.43008 308.01105l-37.043655 -0.021331787" fill-rule="evenodd"/><path stroke="#cccccc" stroke-width="4.0" stroke-linejoin="round" stroke-linecap="butt" d="m281.43008 308.01105l-37.043655 -0.021331787" fill-rule="evenodd"/><path fill="#000000" fill-opacity="0.0" d="m220.87537 405.33136l-39.194168 -0.02130127" fill-rule="evenodd"/><path stroke="#cccccc" stroke-width="4.0" stroke-linejoin="round" stroke-linecap="butt" d="m220.87537 405.33136l-39.194168 -0.02130127" fill-rule="evenodd"/><path fill="#000000" fill-opacity="0.0" d="m183.41432 405.59448l0 -42.075287" fill-rule="evenodd"/><path stroke="#cccccc" stroke-width="4.0" stroke-linejoin="round" stroke-linecap="butt" d="m183.41432 405.59448l0 -42.075287" fill-rule="evenodd"/><path fill="#000000" fill-opacity="0.0" d="m185.28737 447.9978l-22.854477 0.06390381" fill-rule="evenodd"/><path stroke="#cccccc" stroke-width="4.0" stroke-linejoin="round" stroke-linecap="butt" d="m185.28737 447.9978l-22.854477 0.06390381" fill-rule="evenodd"/><path fill="#000000" fill-opacity="0.0" d="m185.44327 453.74747l-16.445099 -0.04260254" fill-rule="evenodd"/><path stroke="#cccccc" stroke-width="4.0" stroke-linejoin="round" stroke-linecap="butt" d="m185.44327 453.74747l-16.445099 -0.04260254" fill-rule="evenodd"/><path fill="#000000" fill-opacity="0.0" d="m219.57323 424.59506l-55.238678 -0.2982788" fill-rule="evenodd"/><path stroke="#cccccc" stroke-width="4.0" stroke-linejoin="round" stroke-linecap="butt" d="m219.57323 424.59506l-55.238678 -0.2982788" fill-rule="evenodd"/><path fill="#000000" fill-opacity="0.0" d="m164.34344 447.88336l-0.25300598 -25.202545" fill-rule="evenodd"/><path stroke="#cccccc" stroke-width="4.0" stroke-linejoin="round" stroke-linecap="butt" d="m164.34344 447.88336l-0.25300598 -25.202545" fill-rule="evenodd"/><path fill="#000000" fill-opacity="0.0" d="m219.59518 405.70425l27.766922 -13.890167" fill-rule="evenodd"/><path stroke="#cccccc" stroke-width="4.0" stroke-linejoin="round" stroke-linecap="butt" d="m219.59518 405.70425l27.766922 -13.890167" fill-rule="evenodd"/><path fill="#000000" fill-opacity="0.0" d="m218.13934 424.36462l35.757553 -17.83139" fill-rule="evenodd"/><path stroke="#cccccc" stroke-width="4.0" stroke-linejoin="round" stroke-linecap="butt" d="m218.13934 424.36462l35.757553 -17.83139" fill-rule="evenodd"/><path fill="#000000" fill-opacity="0.0" d="m245.4051 437.88098l8.791809 -5.0916443" fill-rule="evenodd"/><path stroke="#cccccc" stroke-width="4.0" stroke-linejoin="round" stroke-linecap="butt" d="m245.4051 437.88098l8.791809 -5.0916443" fill-rule="evenodd"/><path fill="#000000" fill-opacity="0.0" d="m207.86154 411.68924l-18.0896 -0.02130127" fill-rule="evenodd"/><path stroke="#cccccc" stroke-width="4.0" stroke-linejoin="round" stroke-linecap="butt" d="m207.86154 411.68924l-18.0896 -0.02130127" fill-rule="evenodd"/><path fill="#000000" fill-opacity="0.0" d="m254.45197 431.9647l0.042175293 41.6492" fill-rule="evenodd"/><path stroke="#cccccc" stroke-width="4.0" stroke-linejoin="round" stroke-linecap="butt" d="m254.45197 431.9647l0.042175293 41.6492" fill-rule="evenodd"/><path fill="#000000" fill-opacity="0.0" d="m186.0669 466.35382l-44.78128 0.17041016" fill-rule="evenodd"/><path stroke="#cccccc" stroke-width="4.0" stroke-linejoin="round" stroke-linecap="butt" d="m186.0669 466.35382l-44.78128 0.17041016" fill-rule="evenodd"/><path fill="#000000" fill-opacity="0.0" d="m184.34975 467.23813l0 -20.451782" fill-rule="evenodd"/><path stroke="#cccccc" stroke-width="4.0" stroke-linejoin="round" stroke-linecap="butt" d="m184.34975 467.23813l0 -20.451782" fill-rule="evenodd"/><path fill="#000000" fill-opacity="0.0" d="m245.87282 436.99664l-0.29516602 40.562714" fill-rule="evenodd"/><path stroke="#cccccc" stroke-width="4.0" stroke-linejoin="round" stroke-linecap="butt" d="m245.87282 436.99664l-0.29516602 40.562714" fill-rule="evenodd"/><path fill="#000000" fill-opacity="0.0" d="m255.23149 473.81766l26.438675 -12.718445" fill-rule="evenodd"/><path stroke="#cccccc" stroke-width="4.0" stroke-linejoin="round" stroke-linecap="butt" d="m255.23149 473.81766l26.438675 -12.718445" fill-rule="evenodd"/><path fill="#000000" fill-opacity="0.0" d="m279.79416 308.23212l1.096344 153.81442" fill-rule="evenodd"/><path stroke="#cccccc" stroke-width="4.0" stroke-linejoin="round" stroke-linecap="butt" d="m279.79416 308.23212l1.096344 153.81442" fill-rule="evenodd"/><path fill="#000000" fill-opacity="0.0" d="m106.34908 338.4853l-0.50600433 152.00357" fill-rule="evenodd"/><path stroke="#cccccc" stroke-width="4.0" stroke-linejoin="round" stroke-linecap="butt" d="m106.34908 338.4853l-0.50600433 152.00357" fill-rule="evenodd"/><path fill="#000000" fill-opacity="0.0" d="m105.907715 339.47003l28.167511 -12.654541" fill-rule="evenodd"/><path stroke="#cccccc" stroke-width="4.0" stroke-linejoin="round" stroke-linecap="butt" d="m105.907715 339.47003l28.167511 -12.654541" fill-rule="evenodd"/><path fill="#000000" fill-opacity="0.0" d="m104.26962 490.73508l114.88379 -0.1491394" fill-rule="evenodd"/><path stroke="#cccccc" stroke-width="4.0" stroke-linejoin="round" stroke-linecap="butt" d="m104.26962 490.73508l114.88379 -0.1491394" fill-rule="evenodd"/><path fill="#000000" fill-opacity="0.0" d="m106.69822 339.56577l112.67004 0.2982788" fill-rule="evenodd"/><path stroke="#cccccc" stroke-width="4.0" stroke-linejoin="round" stroke-linecap="butt" d="m106.69822 339.56577l112.67004 0.2982788" fill-rule="evenodd"/><path fill="#000000" fill-opacity="0.0" d="m218.9079 339.93942l0.3584137 65.381805" fill-rule="evenodd"/><path stroke="#cccccc" stroke-width="4.0" stroke-linejoin="round" stroke-linecap="butt" d="m218.9079 339.93942l0.3584137 65.381805" fill-rule="evenodd"/><path fill="#000000" fill-opacity="0.0" d="m185.01729 364.07394l-42.103683 0" fill-rule="evenodd"/><path stroke="#cccccc" stroke-width="4.0" stroke-linejoin="round" stroke-linecap="butt" d="m185.01729 364.07394l-42.103683 0" fill-rule="evenodd"/><path fill="#000000" fill-opacity="0.0" d="m142.94496 362.96698l-0.08432007 103.83539" fill-rule="evenodd"/><path stroke="#cccccc" stroke-width="4.0" stroke-linejoin="round" stroke-linecap="butt" d="m142.94496 362.96698l-0.08432007 103.83539" fill-rule="evenodd"/><path fill="#000000" fill-opacity="0.0" d="m245.47977 327.1634l-112.22728 -0.19171143" fill-rule="evenodd"/><path stroke="#cccccc" stroke-width="4.0" stroke-linejoin="round" stroke-linecap="butt" d="m245.47977 327.1634l-112.22728 -0.19171143" fill-rule="evenodd"/><path fill="#000000" fill-opacity="0.0" d="m218.81567 339.93942l27.70366 -13.080597" fill-rule="evenodd"/><path stroke="#cccccc" stroke-width="4.0" stroke-linejoin="round" stroke-linecap="butt" d="m218.81567 339.93942l27.70366 -13.080597" fill-rule="evenodd"/><path fill="#000000" fill-opacity="0.0" d="m218.2711 490.8456l27.766922 -14.252319" fill-rule="evenodd"/><path stroke="#cccccc" stroke-width="4.0" stroke-linejoin="round" stroke-linecap="butt" d="m218.2711 490.8456l27.766922 -14.252319" fill-rule="evenodd"/><path fill="#000000" fill-opacity="0.0" d="m171.25156 364.18292l0 55.283722" fill-rule="evenodd"/><path stroke="#cccccc" stroke-width="4.0" stroke-linejoin="round" stroke-linecap="butt" d="m171.25156 364.18292l0 55.283722" fill-rule="evenodd"/><path fill="#000000" fill-opacity="0.0" d="m253.1103 322.71375l-0.14758301 84.832275" fill-rule="evenodd"/><path stroke="#cccccc" stroke-width="4.0" stroke-linejoin="round" stroke-linecap="butt" d="m253.1103 322.71375l-0.14758301 84.832275" fill-rule="evenodd"/><path fill="#000000" fill-opacity="0.0" d="m218.89471 322.93872l34.134125 -0.02130127" fill-rule="evenodd"/><path stroke="#cccccc" stroke-width="4.0" stroke-linejoin="round" stroke-linecap="butt" d="m218.89471 322.93872l34.134125 -0.02130127" fill-rule="evenodd"/><path fill="#000000" fill-opacity="0.0" d="m219.86967 322.27936l25.595322 -14.507965" fill-rule="evenodd"/><path stroke="#cccccc" stroke-width="4.0" stroke-linejoin="round" stroke-linecap="butt" d="m219.86967 322.27936l25.595322 -14.507965" fill-rule="evenodd"/><path fill="#000000" fill-opacity="0.0" d="m253.04663 322.88422l25.82724 -13.549286" fill-rule="evenodd"/><path stroke="#cccccc" stroke-width="4.0" stroke-linejoin="round" stroke-linecap="butt" d="m253.04663 322.88422l25.82724 -13.549286" fill-rule="evenodd"/><path fill="#000000" fill-opacity="0.0" d="m219.28339 423.89368l0.21083069 66.93695" fill-rule="evenodd"/><path stroke="#cccccc" stroke-width="4.0" stroke-linejoin="round" stroke-linecap="butt" d="m219.28339 423.89368l0.21083069 66.93695" fill-rule="evenodd"/><path fill="#000000" fill-opacity="0.0" d="m243.92511 473.65106l12.249481 -0.04260254" fill-rule="evenodd"/><path stroke="#cccccc" stroke-width="4.0" stroke-linejoin="round" stroke-linecap="butt" d="m243.92511 473.65106l12.249481 -0.04260254" fill-rule="evenodd"/><path fill="#000000" fill-opacity="0.0" d="m143.10088 466.51883l27.155502 -12.80365" fill-rule="evenodd"/><path stroke="#cccccc" stroke-width="4.0" stroke-linejoin="round" stroke-linecap="butt" d="m143.10088 466.51883l27.155502 -12.80365" fill-rule="evenodd"/><path fill="#000000" fill-opacity="0.0" d="m163.37508 423.7831l27.42958 -12.377563" fill-rule="evenodd"/><path stroke="#cccccc" stroke-width="4.0" stroke-linejoin="round" stroke-linecap="butt" d="m163.37508 423.7831l27.42958 -12.377563" fill-rule="evenodd"/><path fill="#000000" fill-opacity="0.0" d="m206.62415 412.15332l13.2404175 -6.561615" fill-rule="evenodd"/><path stroke="#cccccc" stroke-width="4.0" stroke-linejoin="round" stroke-linecap="butt" d="m206.62415 412.15332l13.2404175 -6.561615" fill-rule="evenodd"/><path fill="#000000" fill-opacity="0.0" d="m76.28763 276.9433l2.129425 229.08124" fill-rule="evenodd"/><path stroke="#cccccc" stroke-width="4.0" stroke-linejoin="round" stroke-linecap="butt" d="m76.28763 276.9433l2.129425 229.08124" fill-rule="evenodd"/><path fill="#000000" fill-opacity="0.0" d="m76.03333 276.71585l244.98987 -0.25567627" fill-rule="evenodd"/><path stroke="#cccccc" stroke-width="4.0" stroke-linejoin="round" stroke-linecap="butt" d="m76.03333 276.71585l244.98987 -0.25567627" fill-rule="evenodd"/><path fill="#000000" fill-opacity="0.0" d="m319.7319 278.31946l0.6325073 225.97089" fill-rule="evenodd"/><path stroke="#cccccc" stroke-width="4.0" stroke-linejoin="round" stroke-linecap="butt" d="m319.7319 278.31946l0.6325073 225.97089" fill-rule="evenodd"/><path fill="#000000" fill-opacity="0.0" d="m76.06838 504.36313l244.98987 -0.25564575" fill-rule="evenodd"/><path stroke="#cccccc" stroke-width="4.0" stroke-linejoin="round" stroke-linecap="butt" d="m76.06838 504.36313l244.98987 -0.25564575" fill-rule="evenodd"/><path fill="#000000" fill-opacity="0.0" d="m199.09386 307.10278l0.021087646 -3.9199219" fill-rule="evenodd"/><path stroke="#cccccc" stroke-width="4.0" stroke-linejoin="round" stroke-linecap="butt" d="m199.09386 307.10278l0.021087646 -3.9199219" fill-rule="evenodd"/><path fill="#000000" fill-opacity="0.0" d="m200.76692 306.24725l-21.65271 0.06390381" fill-rule="evenodd"/><path stroke="#cccccc" stroke-width="4.0" stroke-linejoin="round" stroke-linecap="butt" d="m200.76692 306.24725l-21.65271 0.06390381" fill-rule="evenodd"/><path fill="#000000" fill-opacity="0.0" d="m180.9747 313.29553l0.16867065 -7.882477" fill-rule="evenodd"/><path stroke="#cccccc" stroke-width="4.0" stroke-linejoin="round" stroke-linecap="butt" d="m180.9747 313.29553l0.16867065 -7.882477" fill-rule="evenodd"/><path fill="#000000" fill-opacity="0.0" d="m215.04485 312.3153l-35.462387 0.25564575" fill-rule="evenodd"/><path stroke="#cccccc" stroke-width="4.0" stroke-linejoin="round" stroke-linecap="butt" d="m215.04485 312.3153l-35.462387 0.25564575" fill-rule="evenodd"/><path fill="#000000" fill-opacity="0.0" d="m213.19788 319.3042l0.08433533 -7.4563904" fill-rule="evenodd"/><path stroke="#cccccc" stroke-width="4.0" stroke-linejoin="round" stroke-linecap="butt" d="m213.19788 319.3042l0.08433533 -7.4563904" fill-rule="evenodd"/><path fill="#000000" fill-opacity="0.0" d="m215.04485 317.78833l-19.691956 0.12783813" fill-rule="evenodd"/><path stroke="#cccccc" stroke-width="4.0" stroke-linejoin="round" stroke-linecap="butt" d="m215.04485 317.78833l-19.691956 0.12783813" fill-rule="evenodd"/><path fill="#000000" fill-opacity="0.0" d="m197.27112 326.7683l0.08432007 -7.45636" fill-rule="evenodd"/><path stroke="#cccccc" stroke-width="4.0" stroke-linejoin="round" stroke-linecap="butt" d="m197.27112 326.7683l0.08432007 -7.45636" fill-rule="evenodd"/><path fill="#000000" fill-opacity="0.0" d="m203.15625 301.68082l-8.201462 0.04260254" fill-rule="evenodd"/><path stroke="#cccccc" stroke-width="4.0" stroke-linejoin="round" stroke-linecap="butt" d="m203.15625 301.68082l-8.201462 0.04260254" fill-rule="evenodd"/><path fill="#000000" fill-opacity="0.0" d="m206.65738 279.65878l-0.030593872 4.2703857" fill-rule="evenodd"/><path stroke="#cccccc" stroke-width="4.0" stroke-linejoin="round" stroke-linecap="butt" d="m206.65738 279.65878l-0.030593872 4.2703857" fill-rule="evenodd"/><path fill="#000000" fill-opacity="0.0" d="m190.75203 279.65878l0.061187744 4.2703857" fill-rule="evenodd"/><path stroke="#cccccc" stroke-width="4.0" stroke-linejoin="round" stroke-linecap="butt" d="m190.75203 279.65878l0.061187744 4.2703857" fill-rule="evenodd"/><path fill="#000000" fill-opacity="0.0" d="m183.35066 283.40906l31.448685 0.09060669" fill-rule="evenodd"/><path stroke="#cccccc" stroke-width="4.0" stroke-linejoin="round" stroke-linecap="butt" d="m183.35066 283.40906l31.448685 0.09060669" fill-rule="evenodd"/><path fill="#000000" fill-opacity="0.0" d="m183.35002 291.19186l31.448685 0.09060669" fill-rule="evenodd"/><path stroke="#cccccc" stroke-width="4.0" stroke-linejoin="round" stroke-linecap="butt" d="m183.35002 291.19186l31.448685 0.09060669" fill-rule="evenodd"/><path fill="#000000" fill-opacity="0.0" d="m185.31938 282.92294l-0.030593872 8.359528" fill-rule="evenodd"/><path stroke="#cccccc" stroke-width="4.0" stroke-linejoin="round" stroke-linecap="butt" d="m185.31938 282.92294l-0.030593872 8.359528" fill-rule="evenodd"/><path fill="#000000" fill-opacity="0.0" d="m212.74904 282.92294l-0.030593872 8.359528" fill-rule="evenodd"/><path stroke="#cccccc" stroke-width="4.0" stroke-linejoin="round" stroke-linecap="butt" d="m212.74904 282.92294l-0.030593872 8.359528" fill-rule="evenodd"/><path fill="#000000" fill-opacity="0.0" d="m187.95923 291.4373l8.137497 11.871002" fill-rule="evenodd"/><path stroke="#cccccc" stroke-width="4.0" stroke-linejoin="round" stroke-linecap="butt" d="m187.95923 291.4373l8.137497 11.871002" fill-rule="evenodd"/><path fill="#000000" fill-opacity="0.0" d="m210.42021 291.07764l-8.504608 11.7803955" fill-rule="evenodd"/><path stroke="#cccccc" stroke-width="4.0" stroke-linejoin="round" stroke-linecap="butt" d="m210.42021 291.07764l-8.504608 11.7803955" fill-rule="evenodd"/><path fill="#000000" fill-opacity="0.0" d="m334.54758 276.94226l351.41916 0l0 229.08124l-351.41916 0z" fill-rule="evenodd"/><path fill="#cccccc" d="m396.1882 362.60474q-3.140625 4.484375 -8.75 6.703125q-5.59375 2.21875 -13.046875 2.21875q-7.53125 0 -13.375 -3.53125q-5.828125 -3.53125 -9.03125 -10.046875q-3.1875 -6.515625 -3.28125 -15.109375l0 -5.375q0 -13.921875 6.5 -21.578125q6.5 -7.65625 18.265625 -7.65625q9.640625 0 15.515625 4.9375q5.890625 4.921875 7.203125 13.96875l-8.125 0q-2.28125 -12.21875 -14.5625 -12.21875q-8.15625 0 -12.375 5.734375q-4.203125 5.734375 -4.25 16.609375l0 5.03125q0 10.359375 4.734375 16.484375q4.75 6.109375 12.828125 6.109375q4.5625 0 7.984375 -1.015625q3.4375 -1.015625 5.6875 -3.421875l0 -13.84375l-14.265625 0l0 -6.59375l22.34375 0l0 22.59375zm56.901093 -53.53125l0 41.890625q-0.03125 8.71875 -5.46875 14.265625q-5.4375 5.53125 -14.75 6.21875l-2.15625 0.078125q-10.109375 0 -16.125 -5.453125q-6.0 -5.46875 -6.09375 -15.03125l0 -41.96875l8.046875 0l0 41.71875q0 6.6875 3.671875 10.390625q3.6875 3.703125 10.5 3.703125q6.890625 0 10.546875 -3.671875q3.671875 -3.6875 3.671875 -10.375l0 -41.765625l8.15625 0zm46.847412 45.53125l-25.8125 0l-5.796875 16.078125l-8.375 0l23.515625 -61.609375l7.109375 0l23.578125 61.609375l-8.34375 0l-5.875 -16.078125zm-23.359375 -6.6875l20.953125 0l-10.5 -28.8125l-10.453125 28.8125zm93.21716 22.765625l-8.171875 0l-31.015625 -47.46875l0 47.46875l-8.15625 0l0 -61.609375l8.15625 0l31.109375 47.6875l0 -47.6875l8.078125 0l0 61.609375zm48.448303 -16.078125l-25.8125 0l-5.796875 16.078125l-8.375 0l23.515625 -61.609375l7.109375 0l23.578125 61.609375l-8.34375 0l-5.875 -16.078125zm-23.359375 -6.6875l20.953125 0l-10.5 -28.8125l-10.453125 28.8125z" fill-rule="nonzero"/><path fill="#cccccc" d="m395.9382 474.68286l-2.296875 0l0 -30.546875l-39.34375 0l0 30.546875l-2.28125 0l0 -61.609375l2.28125 0l0 28.78125l39.34375 0l0 -28.78125l2.296875 0l0 61.609375zm49.3768 -18.40625l-30.171875 0l-6.859375 18.40625l-2.5 0l23.0625 -61.609375l2.796875 0l23.0625 61.609375l-2.5 0l-6.890625 -18.40625zm-29.328125 -2.28125l28.46875 0l-14.203125 -38.171875l-14.265625 38.171875zm90.51395 1.8125q-0.890625 9.53125 -6.5625 14.625q-5.671875 5.09375 -15.40625 5.09375q-6.5625 0 -11.625 -3.3125q-5.046875 -3.328125 -7.84375 -9.4375q-2.78125 -6.125 -2.828125 -13.984375l0 -9.53125q0 -7.859375 2.75 -14.0625q2.75 -6.203125 7.84375 -9.578125q5.109375 -3.390625 11.703125 -3.390625q9.640625 0 15.359375 5.078125q5.71875 5.078125 6.609375 14.546875l-2.296875 0q-0.96875 -8.5 -5.921875 -12.921875q-4.953125 -4.421875 -13.75 -4.421875q-8.96875 0 -14.5 6.78125q-5.515625 6.765625 -5.515625 18.140625l0 9.0625q0 7.28125 2.453125 12.890625q2.453125 5.59375 7.046875 8.734375q4.59375 3.125 10.515625 3.125q8.84375 0 13.8125 -4.359375q4.96875 -4.359375 5.859375 -13.078125l2.296875 0zm26.398834 -13.53125l-9.859375 9.09375l0 23.3125l-2.28125 0l0 -61.609375l2.28125 0l0 35.625l10.15625 -9.9375l25.546875 -25.6875l3.3125 0l-27.46875 27.625l29.578125 33.984375l-2.96875 0l-28.296875 -32.40625zm79.75641 17.640625q0 -3.9375 -1.84375 -6.65625q-1.84375 -2.734375 -5.796875 -4.828125q-3.953125 -2.09375 -11.953125 -4.296875q-8.0 -2.203125 -12.0 -4.4375q-3.984375 -2.25 -5.859375 -5.203125q-1.859375 -2.96875 -1.859375 -7.203125q0 -6.734375 5.671875 -10.890625q5.671875 -4.171875 14.765625 -4.171875q5.921875 0 10.640625 2.3125q4.71875 2.296875 7.296875 6.46875q2.59375 4.171875 2.59375 9.40625l-2.296875 0q0 -6.890625 -5.078125 -11.390625q-5.078125 -4.515625 -13.15625 -4.515625q-8.125 0 -13.140625 3.625q-5.015625 3.609375 -5.015625 9.078125q0 5.53125 4.359375 8.921875q4.359375 3.390625 14.390625 6.0q10.03125 2.59375 14.6875 6.015625q5.921875 4.359375 5.921875 11.671875q0 4.65625 -2.625 8.234375q-2.625 3.578125 -7.453125 5.53125q-4.8125 1.9375 -10.828125 1.9375q-6.6875 0 -12.015625 -2.21875q-5.328125 -2.21875 -8.015625 -6.328125q-2.6875 -4.109375 -2.6875 -9.6875l2.28125 0q0 7.578125 5.671875 11.765625q5.671875 4.1875 14.765625 4.1875q8.078125 0 13.328125 -3.703125q5.25 -3.703125 5.25 -9.625z" fill-rule="nonzero"/><path fill="#000000" fill-opacity="0.0" d="m220.5394 66.88246l-0.14758301 6.3272705" fill-rule="evenodd"/><path stroke="#ffffff" stroke-width="8.0" stroke-linejoin="round" stroke-linecap="butt" d="m220.5394 66.88246l-0.14758301 6.3272705" fill-rule="evenodd"/><path fill="#000000" fill-opacity="0.0" d="m170.32051 192.49503l-0.042160034 7.051605" fill-rule="evenodd"/><path stroke="#ffffff" stroke-width="8.0" stroke-linejoin="round" stroke-linecap="butt" d="m170.32051 192.49503l-0.042160034 7.051605" fill-rule="evenodd"/><path fill="#000000" fill-opacity="0.0" d="m246.34053 71.26283l0.08433533 66.74524" fill-rule="evenodd"/><path stroke="#efefef" stroke-width="8.0" stroke-linejoin="round" stroke-linecap="butt" d="m246.34053 71.26283l0.08433533 66.74524" fill-rule="evenodd"/><path fill="#000000" fill-opacity="0.0" d="m281.43008 53.2945l-37.043655 -0.021305084" fill-rule="evenodd"/><path stroke="#ffffff" stroke-width="8.0" stroke-linejoin="round" stroke-linecap="butt" d="m281.43008 53.2945l-37.043655 -0.021305084" fill-rule="evenodd"/><path fill="#000000" fill-opacity="0.0" d="m220.87537 150.61482l-39.194168 -0.02130127" fill-rule="evenodd"/><path stroke="#ffffff" stroke-width="8.0" stroke-linejoin="round" stroke-linecap="butt" d="m220.87537 150.61482l-39.194168 -0.02130127" fill-rule="evenodd"/><path fill="#000000" fill-opacity="0.0" d="m183.41432 150.87794l0 -42.07528" fill-rule="evenodd"/><path stroke="#ffffff" stroke-width="8.0" stroke-linejoin="round" stroke-linecap="butt" d="m183.41432 150.87794l0 -42.07528" fill-rule="evenodd"/><path fill="#000000" fill-opacity="0.0" d="m185.28737 193.28127l-22.854477 0.06390381" fill-rule="evenodd"/><path stroke="#ffffff" stroke-width="8.0" stroke-linejoin="round" stroke-linecap="butt" d="m185.28737 193.28127l-22.854477 0.06390381" fill-rule="evenodd"/><path fill="#000000" fill-opacity="0.0" d="m185.44327 199.03094l-16.445099 -0.04260254" fill-rule="evenodd"/><path stroke="#ffffff" stroke-width="8.0" stroke-linejoin="round" stroke-linecap="butt" d="m185.44327 199.03094l-16.445099 -0.04260254" fill-rule="evenodd"/><path fill="#000000" fill-opacity="0.0" d="m219.57323 169.87852l-55.238678 -0.29826355" fill-rule="evenodd"/><path stroke="#ffffff" stroke-width="8.0" stroke-linejoin="round" stroke-linecap="butt" d="m219.57323 169.87852l-55.238678 -0.29826355" fill-rule="evenodd"/><path fill="#000000" fill-opacity="0.0" d="m164.34344 193.16682l-0.25300598 -25.202545" fill-rule="evenodd"/><path stroke="#ffffff" stroke-width="8.0" stroke-linejoin="round" stroke-linecap="butt" d="m164.34344 193.16682l-0.25300598 -25.202545" fill-rule="evenodd"/><path fill="#000000" fill-opacity="0.0" d="m219.59518 150.9877l27.766922 -13.890167" fill-rule="evenodd"/><path stroke="#efefef" stroke-width="8.0" stroke-linejoin="round" stroke-linecap="butt" d="m219.59518 150.9877l27.766922 -13.890167" fill-rule="evenodd"/><path fill="#000000" fill-opacity="0.0" d="m218.13934 169.6481l35.757553 -17.831406" fill-rule="evenodd"/><path stroke="#efefef" stroke-width="8.0" stroke-linejoin="round" stroke-linecap="butt" d="m218.13934 169.6481l35.757553 -17.831406" fill-rule="evenodd"/><path fill="#000000" fill-opacity="0.0" d="m245.4051 183.16444l8.791809 -5.0916443" fill-rule="evenodd"/><path stroke="#efefef" stroke-width="8.0" stroke-linejoin="round" stroke-linecap="butt" d="m245.4051 183.16444l8.791809 -5.0916443" fill-rule="evenodd"/><path fill="#000000" fill-opacity="0.0" d="m207.86154 156.9727l-18.0896 -0.02130127" fill-rule="evenodd"/><path stroke="#ffffff" stroke-width="8.0" stroke-linejoin="round" stroke-linecap="butt" d="m207.86154 156.9727l-18.0896 -0.02130127" fill-rule="evenodd"/><path fill="#000000" fill-opacity="0.0" d="m254.45197 177.24817l0.042175293 41.6492" fill-rule="evenodd"/><path stroke="#efefef" stroke-width="8.0" stroke-linejoin="round" stroke-linecap="butt" d="m254.45197 177.24817l0.042175293 41.6492" fill-rule="evenodd"/><path fill="#000000" fill-opacity="0.0" d="m186.0669 211.63727l-44.78128 0.17044067" fill-rule="evenodd"/><path stroke="#ffffff" stroke-width="8.0" stroke-linejoin="round" stroke-linecap="butt" d="m186.0669 211.63727l-44.78128 0.17044067" fill-rule="evenodd"/><path fill="#000000" fill-opacity="0.0" d="m184.34975 212.5216l0 -20.451782" fill-rule="evenodd"/><path stroke="#ffffff" stroke-width="8.0" stroke-linejoin="round" stroke-linecap="butt" d="m184.34975 212.5216l0 -20.451782" fill-rule="evenodd"/><path fill="#000000" fill-opacity="0.0" d="m245.87282 182.2801l-0.29516602 40.5627" fill-rule="evenodd"/><path stroke="#efefef" stroke-width="8.0" stroke-linejoin="round" stroke-linecap="butt" d="m245.87282 182.2801l-0.29516602 40.5627" fill-rule="evenodd"/><path fill="#000000" fill-opacity="0.0" d="m255.23149 219.10112l26.438675 -12.71846" fill-rule="evenodd"/><path stroke="#efefef" stroke-width="8.0" stroke-linejoin="round" stroke-linecap="butt" d="m255.23149 219.10112l26.438675 -12.71846" fill-rule="evenodd"/><path fill="#000000" fill-opacity="0.0" d="m279.79416 53.51558l1.096344 153.81442" fill-rule="evenodd"/><path stroke="#efefef" stroke-width="8.0" stroke-linejoin="round" stroke-linecap="butt" d="m279.79416 53.51558l1.096344 153.81442" fill-rule="evenodd"/><path fill="#000000" fill-opacity="0.0" d="m106.34908 83.768745l-0.50600433 152.0036" fill-rule="evenodd"/><path stroke="#ffffff" stroke-width="8.0" stroke-linejoin="round" stroke-linecap="butt" d="m106.34908 83.768745l-0.50600433 152.0036" fill-rule="evenodd"/><path fill="#000000" fill-opacity="0.0" d="m105.907715 84.753494l28.167511 -12.654541" fill-rule="evenodd"/><path stroke="#ffffff" stroke-width="8.0" stroke-linejoin="round" stroke-linecap="butt" d="m105.907715 84.753494l28.167511 -12.654541" fill-rule="evenodd"/><path fill="#000000" fill-opacity="0.0" d="m104.26962 236.01854l114.88379 -0.14912415" fill-rule="evenodd"/><path stroke="#ffffff" stroke-width="8.0" stroke-linejoin="round" stroke-linecap="butt" d="m104.26962 236.01854l114.88379 -0.14912415" fill-rule="evenodd"/><path fill="#000000" fill-opacity="0.0" d="m106.69822 84.84924l112.67004 0.29825592" fill-rule="evenodd"/><path stroke="#ffffff" stroke-width="8.0" stroke-linejoin="round" stroke-linecap="butt" d="m106.69822 84.84924l112.67004 0.29825592" fill-rule="evenodd"/><path fill="#000000" fill-opacity="0.0" d="m218.9079 85.2229l0.3584137 65.38179" fill-rule="evenodd"/><path stroke="#efefef" stroke-width="8.0" stroke-linejoin="round" stroke-linecap="butt" d="m218.9079 85.2229l0.3584137 65.38179" fill-rule="evenodd"/><path fill="#000000" fill-opacity="0.0" d="m185.01729 109.3574l-42.103683 0" fill-rule="evenodd"/><path stroke="#ffffff" stroke-width="8.0" stroke-linejoin="round" stroke-linecap="butt" d="m185.01729 109.3574l-42.103683 0" fill-rule="evenodd"/><path fill="#000000" fill-opacity="0.0" d="m142.94496 108.25043l-0.08432007 103.83539" fill-rule="evenodd"/><path stroke="#ffffff" stroke-width="8.0" stroke-linejoin="round" stroke-linecap="butt" d="m142.94496 108.25043l-0.08432007 103.83539" fill-rule="evenodd"/><path fill="#000000" fill-opacity="0.0" d="m245.47977 72.44687l-112.22728 -0.19173431" fill-rule="evenodd"/><path stroke="#ffffff" stroke-width="8.0" stroke-linejoin="round" stroke-linecap="butt" d="m245.47977 72.44687l-112.22728 -0.19173431" fill-rule="evenodd"/><path fill="#000000" fill-opacity="0.0" d="m218.81567 85.2229l27.70366 -13.08062" fill-rule="evenodd"/><path stroke="#efefef" stroke-width="8.0" stroke-linejoin="round" stroke-linecap="butt" d="m218.81567 85.2229l27.70366 -13.08062" fill-rule="evenodd"/><path fill="#000000" fill-opacity="0.0" d="m218.2711 236.12907l27.766922 -14.252335" fill-rule="evenodd"/><path stroke="#efefef" stroke-width="8.0" stroke-linejoin="round" stroke-linecap="butt" d="m218.2711 236.12907l27.766922 -14.252335" fill-rule="evenodd"/><path fill="#000000" fill-opacity="0.0" d="m171.25156 109.46638l0 55.283714" fill-rule="evenodd"/><path stroke="#ffffff" stroke-width="8.0" stroke-linejoin="round" stroke-linecap="butt" d="m171.25156 109.46638l0 55.283714" fill-rule="evenodd"/><path fill="#000000" fill-opacity="0.0" d="m253.1103 67.99721l-0.14758301 84.832275" fill-rule="evenodd"/><path stroke="#efefef" stroke-width="8.0" stroke-linejoin="round" stroke-linecap="butt" d="m253.1103 67.99721l-0.14758301 84.832275" fill-rule="evenodd"/><path fill="#000000" fill-opacity="0.0" d="m218.89471 68.22218l34.134125 -0.02130127" fill-rule="evenodd"/><path stroke="#ffffff" stroke-width="8.0" stroke-linejoin="round" stroke-linecap="butt" d="m218.89471 68.22218l34.134125 -0.02130127" fill-rule="evenodd"/><path fill="#000000" fill-opacity="0.0" d="m219.86967 67.56283l25.595322 -14.507977" fill-rule="evenodd"/><path stroke="#ffffff" stroke-width="8.0" stroke-linejoin="round" stroke-linecap="butt" d="m219.86967 67.56283l25.595322 -14.507977" fill-rule="evenodd"/><path fill="#000000" fill-opacity="0.0" d="m253.04663 68.167694l25.82724 -13.549305" fill-rule="evenodd"/><path stroke="#efefef" stroke-width="8.0" stroke-linejoin="round" stroke-linecap="butt" d="m253.04663 68.167694l25.82724 -13.549305" fill-rule="evenodd"/><path fill="#000000" fill-opacity="0.0" d="m219.28339 169.17712l0.21083069 66.93698" fill-rule="evenodd"/><path stroke="#efefef" stroke-width="8.0" stroke-linejoin="round" stroke-linecap="butt" d="m219.28339 169.17712l0.21083069 66.93698" fill-rule="evenodd"/><path fill="#000000" fill-opacity="0.0" d="m243.92511 218.93452l12.249481 -0.04260254" fill-rule="evenodd"/><path stroke="#ffffff" stroke-width="8.0" stroke-linejoin="round" stroke-linecap="butt" d="m243.92511 218.93452l12.249481 -0.04260254" fill-rule="evenodd"/><path fill="#000000" fill-opacity="0.0" d="m143.10088 211.8023l27.155502 -12.803665" fill-rule="evenodd"/><path stroke="#ffffff" stroke-width="8.0" stroke-linejoin="round" stroke-linecap="butt" d="m143.10088 211.8023l27.155502 -12.803665" fill-rule="evenodd"/><path fill="#000000" fill-opacity="0.0" d="m163.37508 169.06659l27.42958 -12.377594" fill-rule="evenodd"/><path stroke="#ffffff" stroke-width="8.0" stroke-linejoin="round" stroke-linecap="butt" d="m163.37508 169.06659l27.42958 -12.377594" fill-rule="evenodd"/><path fill="#000000" fill-opacity="0.0" d="m206.62415 157.43678l13.2404175 -6.561615" fill-rule="evenodd"/><path stroke="#ffffff" stroke-width="8.0" stroke-linejoin="round" stroke-linecap="butt" d="m206.62415 157.43678l13.2404175 -6.561615" fill-rule="evenodd"/><path fill="#000000" fill-opacity="0.0" d="m76.28763 22.226774l2.129425 229.08124" fill-rule="evenodd"/><path stroke="#ffffff" stroke-width="8.0" stroke-linejoin="round" stroke-linecap="butt" d="m76.28763 22.226774l2.129425 229.08124" fill-rule="evenodd"/><path fill="#000000" fill-opacity="0.0" d="m76.03333 21.9993l244.98987 -0.25564575" fill-rule="evenodd"/><path stroke="#ffffff" stroke-width="8.0" stroke-linejoin="round" stroke-linecap="butt" d="m76.03333 21.9993l244.98987 -0.25564575" fill-rule="evenodd"/><path fill="#000000" fill-opacity="0.0" d="m319.7319 23.602936l0.6325073 225.97086" fill-rule="evenodd"/><path stroke="#ffffff" stroke-width="8.0" stroke-linejoin="round" stroke-linecap="butt" d="m319.7319 23.602936l0.6325073 225.97086" fill-rule="evenodd"/><path fill="#000000" fill-opacity="0.0" d="m76.06838 249.64658l244.98987 -0.25564575" fill-rule="evenodd"/><path stroke="#ffffff" stroke-width="8.0" stroke-linejoin="round" stroke-linecap="butt" d="m76.06838 249.64658l244.98987 -0.25564575" fill-rule="evenodd"/><path fill="#000000" fill-opacity="0.0" d="m199.09386 52.38625l0.021087646 -3.9199219" fill-rule="evenodd"/><path stroke="#ffffff" stroke-width="8.0" stroke-linejoin="round" stroke-linecap="butt" d="m199.09386 52.38625l0.021087646 -3.9199219" fill-rule="evenodd"/><path fill="#000000" fill-opacity="0.0" d="m200.76692 51.530712l-21.65271 0.06391144" fill-rule="evenodd"/><path stroke="#ffffff" stroke-width="8.0" stroke-linejoin="round" stroke-linecap="butt" d="m200.76692 51.530712l-21.65271 0.06391144" fill-rule="evenodd"/><path fill="#000000" fill-opacity="0.0" d="m180.9747 58.578983l0.16867065 -7.8824577" fill-rule="evenodd"/><path stroke="#ffffff" stroke-width="8.0" stroke-linejoin="round" stroke-linecap="butt" d="m180.9747 58.578983l0.16867065 -7.8824577" fill-rule="evenodd"/><path fill="#000000" fill-opacity="0.0" d="m215.04485 57.598774l-35.462387 0.25564575" fill-rule="evenodd"/><path stroke="#ffffff" stroke-width="8.0" stroke-linejoin="round" stroke-linecap="butt" d="m215.04485 57.598774l-35.462387 0.25564575" fill-rule="evenodd"/><path fill="#000000" fill-opacity="0.0" d="m213.19788 64.58766l0.08433533 -7.4563828" fill-rule="evenodd"/><path stroke="#ffffff" stroke-width="8.0" stroke-linejoin="round" stroke-linecap="butt" d="m213.19788 64.58766l0.08433533 -7.4563828" fill-rule="evenodd"/><path fill="#000000" fill-opacity="0.0" d="m215.04485 63.071804l-19.691956 0.12782288" fill-rule="evenodd"/><path stroke="#ffffff" stroke-width="8.0" stroke-linejoin="round" stroke-linecap="butt" d="m215.04485 63.071804l-19.691956 0.12782288" fill-rule="evenodd"/><path fill="#000000" fill-opacity="0.0" d="m197.27112 72.05178l0.08432007 -7.456375" fill-rule="evenodd"/><path stroke="#ffffff" stroke-width="8.0" stroke-linejoin="round" stroke-linecap="butt" d="m197.27112 72.05178l0.08432007 -7.456375" fill-rule="evenodd"/><path fill="#000000" fill-opacity="0.0" d="m203.15625 46.964268l-8.201462 0.042606354" fill-rule="evenodd"/><path stroke="#ffffff" stroke-width="8.0" stroke-linejoin="round" stroke-linecap="butt" d="m203.15625 46.964268l-8.201462 0.042606354" fill-rule="evenodd"/><path fill="#000000" fill-opacity="0.0" d="m206.65738 24.942244l-0.030593872 4.2703934" fill-rule="evenodd"/><path stroke="#ffffff" stroke-width="8.0" stroke-linejoin="round" stroke-linecap="butt" d="m206.65738 24.942244l-0.030593872 4.2703934" fill-rule="evenodd"/><path fill="#000000" fill-opacity="0.0" d="m190.75203 24.942244l0.061187744 4.2703934" fill-rule="evenodd"/><path stroke="#ffffff" stroke-width="8.0" stroke-linejoin="round" stroke-linecap="butt" d="m190.75203 24.942244l0.061187744 4.2703934" fill-rule="evenodd"/><path fill="#000000" fill-opacity="0.0" d="m183.35066 28.692524l31.448685 0.09061813" fill-rule="evenodd"/><path stroke="#ffffff" stroke-width="8.0" stroke-linejoin="round" stroke-linecap="butt" d="m183.35066 28.692524l31.448685 0.09061813" fill-rule="evenodd"/><path fill="#000000" fill-opacity="0.0" d="m183.35002 36.475327l31.448685 0.09061813" fill-rule="evenodd"/><path stroke="#ffffff" stroke-width="8.0" stroke-linejoin="round" stroke-linecap="butt" d="m183.35002 36.475327l31.448685 0.09061813" fill-rule="evenodd"/><path fill="#000000" fill-opacity="0.0" d="m185.31938 28.206394l-0.030593872 8.35955" fill-rule="evenodd"/><path stroke="#ffffff" stroke-width="8.0" stroke-linejoin="round" stroke-linecap="butt" d="m185.31938 28.206394l-0.030593872 8.35955" fill-rule="evenodd"/><path fill="#000000" fill-opacity="0.0" d="m212.74904 28.206394l-0.030593872 8.35955" fill-rule="evenodd"/><path stroke="#ffffff" stroke-width="8.0" stroke-linejoin="round" stroke-linecap="butt" d="m212.74904 28.206394l-0.030593872 8.35955" fill-rule="evenodd"/><path fill="#000000" fill-opacity="0.0" d="m187.95923 36.72075l8.137497 11.871014" fill-rule="evenodd"/><path stroke="#ffffff" stroke-width="8.0" stroke-linejoin="round" stroke-linecap="butt" d="m187.95923 36.72075l8.137497 11.871014" fill-rule="evenodd"/><path fill="#000000" fill-opacity="0.0" d="m210.42021 36.361107l-8.504608 11.7803955" fill-rule="evenodd"/><path stroke="#ffffff" stroke-width="8.0" stroke-linejoin="round" stroke-linecap="butt" d="m210.42021 36.361107l-8.504608 11.7803955" fill-rule="evenodd"/><path fill="#000000" fill-opacity="0.0" d="m334.54758 22.225721l351.41916 0l0 229.08124l-351.41916 0z" fill-rule="evenodd"/><path fill="#9900ff" d="m396.1882 107.888214q-3.140625 4.484375 -8.75 6.703125q-5.59375 2.21875 -13.046875 2.21875q-7.53125 0 -13.375 -3.53125q-5.828125 -3.53125 -9.03125 -10.046875q-3.1875 -6.515625 -3.28125 -15.109375l0 -5.375q0 -13.921875 6.5 -21.578125q6.5 -7.65625 18.265625 -7.65625q9.640625 0 15.515625 4.9375q5.890625 4.921875 7.203125 13.96875l-8.125 0q-2.28125 -12.21875 -14.5625 -12.21875q-8.15625 0 -12.375 5.734375q-4.203125 5.734375 -4.25 16.609375l0 5.03125q0 10.359375 4.734375 16.484375q4.75 6.109375 12.828125 6.109375q4.5625 0 7.984375 -1.015625q3.4375 -1.015625 5.6875 -3.421875l0 -13.84375l-14.265625 0l0 -6.59375l22.34375 0l0 22.59375zm56.901093 -53.53125l0 41.890625q-0.03125 8.71875 -5.46875 14.265625q-5.4375 5.53125 -14.75 6.21875l-2.15625 0.078125q-10.109375 0 -16.125 -5.453125q-6.0 -5.46875 -6.09375 -15.03125l0 -41.96875l8.046875 0l0 41.71875q0 6.6875 3.671875 10.390625q3.6875 3.703125 10.5 3.703125q6.890625 0 10.546875 -3.671875q3.671875 -3.6875 3.671875 -10.375l0 -41.765625l8.15625 0zm46.847412 45.53125l-25.8125 0l-5.796875 16.078125l-8.375 0l23.515625 -61.609375l7.109375 0l23.578125 61.609375l-8.34375 0l-5.875 -16.078125zm-23.359375 -6.6875l20.953125 0l-10.5 -28.8125l-10.453125 28.8125zm93.21716 22.765625l-8.171875 0l-31.015625 -47.46875l0 47.46875l-8.15625 0l0 -61.609375l8.15625 0l31.109375 47.6875l0 -47.6875l8.078125 0l0 61.609375zm48.448303 -16.078125l-25.8125 0l-5.796875 16.078125l-8.375 0l23.515625 -61.609375l7.109375 0l23.578125 61.609375l-8.34375 0l-5.875 -16.078125zm-23.359375 -6.6875l20.953125 0l-10.5 -28.8125l-10.453125 28.8125z" fill-rule="nonzero"/><path fill="#9900ff" d="m395.9382 219.96634l-2.296875 0l0 -30.546875l-39.34375 0l0 30.546875l-2.28125 0l0 -61.609375l2.28125 0l0 28.78125l39.34375 0l0 -28.78125l2.296875 0l0 61.609375zm49.3768 -18.40625l-30.171875 0l-6.859375 18.40625l-2.5 0l23.0625 -61.609375l2.796875 0l23.0625 61.609375l-2.5 0l-6.890625 -18.40625zm-29.328125 -2.28125l28.46875 0l-14.203125 -38.171875l-14.265625 38.171875zm90.51395 1.8125q-0.890625 9.53125 -6.5625 14.625q-5.671875 5.09375 -15.40625 5.09375q-6.5625 0 -11.625 -3.3125q-5.046875 -3.328125 -7.84375 -9.4375q-2.78125 -6.125 -2.828125 -13.984375l0 -9.53125q0 -7.859375 2.75 -14.0625q2.75 -6.203125 7.84375 -9.578125q5.109375 -3.390625 11.703125 -3.390625q9.640625 0 15.359375 5.078125q5.71875 5.078125 6.609375 14.546875l-2.296875 0q-0.96875 -8.5 -5.921875 -12.921875q-4.953125 -4.421875 -13.75 -4.421875q-8.96875 0 -14.5 6.78125q-5.515625 6.765625 -5.515625 18.140625l0 9.0625q0 7.28125 2.453125 12.890625q2.453125 5.59375 7.046875 8.734375q4.59375 3.125 10.515625 3.125q8.84375 0 13.8125 -4.359375q4.96875 -4.359375 5.859375 -13.078125l2.296875 0zm26.398834 -13.53125l-9.859375 9.09375l0 23.3125l-2.28125 0l0 -61.609375l2.28125 0l0 35.625l10.15625 -9.9375l25.546875 -25.6875l3.3125 0l-27.46875 27.625l29.578125 33.984375l-2.96875 0l-28.296875 -32.40625zm79.75641 17.640625q0 -3.9375 -1.84375 -6.65625q-1.84375 -2.734375 -5.796875 -4.828125q-3.953125 -2.09375 -11.953125 -4.296875q-8.0 -2.203125 -12.0 -4.4375q-3.984375 -2.25 -5.859375 -5.203125q-1.859375 -2.96875 -1.859375 -7.203125q0 -6.734375 5.671875 -10.890625q5.671875 -4.171875 14.765625 -4.171875q5.921875 0 10.640625 2.3125q4.71875 2.296875 7.296875 6.46875q2.59375 4.171875 2.59375 9.40625l-2.296875 0q0 -6.890625 -5.078125 -11.390625q-5.078125 -4.515625 -13.15625 -4.515625q-8.125 0 -13.140625 3.625q-5.015625 3.609375 -5.015625 9.078125q0 5.53125 4.359375 8.921875q4.359375 3.390625 14.390625 6.0q10.03125 2.59375 14.6875 6.015625q5.921875 4.359375 5.921875 11.671875q0 4.65625 -2.625 8.234375q-2.625 3.578125 -7.453125 5.53125q-4.8125 1.9375 -10.828125 1.9375q-6.6875 0 -12.015625 -2.21875q-5.328125 -2.21875 -8.015625 -6.328125q-2.6875 -4.109375 -2.6875 -9.6875l2.28125 0q0 7.578125 5.671875 11.765625q5.671875 4.1875 14.765625 4.1875q8.078125 0 13.328125 -3.703125q5.25 -3.703125 5.25 -9.625z" fill-rule="nonzero"/><path fill="#000000" fill-opacity="0.0" d="m221.80699 67.67642l-0.13887024 6.3216553" fill-rule="evenodd"/><path stroke="#9900ff" stroke-width="4.0" stroke-linejoin="round" stroke-linecap="butt" d="m221.80699 67.67642l-0.13887024 6.3216553" fill-rule="evenodd"/><path fill="#000000" fill-opacity="0.0" d="m171.1478 193.31886l-0.046295166 7.0467224" fill-rule="evenodd"/><path stroke="#9900ff" stroke-width="4.0" stroke-linejoin="round" stroke-linecap="butt" d="m171.1478 193.31886l-0.046295166 7.0467224" fill-rule="evenodd"/><path fill="#000000" fill-opacity="0.0" d="m283.23154 54.085228l-37.37126 -0.022655487" fill-rule="evenodd"/><path stroke="#9900ff" stroke-width="4.0" stroke-linejoin="round" stroke-linecap="butt" d="m283.23154 54.085228l-37.37126 -0.022655487" fill-rule="evenodd"/><path fill="#000000" fill-opacity="0.0" d="m222.1459 151.42871l-39.531464 -0.022659302" fill-rule="evenodd"/><path stroke="#9900ff" stroke-width="4.0" stroke-linejoin="round" stroke-linecap="butt" d="m222.1459 151.42871l-39.531464 -0.022659302" fill-rule="evenodd"/><path fill="#000000" fill-opacity="0.0" d="m184.3564 151.6919l0 -42.087738" fill-rule="evenodd"/><path stroke="#9900ff" stroke-width="4.0" stroke-linejoin="round" stroke-linecap="butt" d="m184.3564 151.6919l0 -42.087738" fill-rule="evenodd"/><path fill="#000000" fill-opacity="0.0" d="m186.24588 194.10529l-23.052307 0.056655884" fill-rule="evenodd"/><path stroke="#9900ff" stroke-width="4.0" stroke-linejoin="round" stroke-linecap="butt" d="m186.24588 194.10529l-23.052307 0.056655884" fill-rule="evenodd"/><path fill="#000000" fill-opacity="0.0" d="m186.40315 199.85634l-16.587173 -0.033981323" fill-rule="evenodd"/><path stroke="#9900ff" stroke-width="4.0" stroke-linejoin="round" stroke-linecap="butt" d="m186.40315 199.85634l-16.587173 -0.033981323" fill-rule="evenodd"/><path fill="#000000" fill-opacity="0.0" d="m220.83235 170.69698l-55.717453 -0.29455566" fill-rule="evenodd"/><path stroke="#9900ff" stroke-width="4.0" stroke-linejoin="round" stroke-linecap="butt" d="m220.83235 170.69698l-55.717453 -0.29455566" fill-rule="evenodd"/><path fill="#000000" fill-opacity="0.0" d="m165.11832 193.99083l-0.26231384 -25.207321" fill-rule="evenodd"/><path stroke="#9900ff" stroke-width="4.0" stroke-linejoin="round" stroke-linecap="butt" d="m165.11832 193.99083l-0.26231384 -25.207321" fill-rule="evenodd"/><path fill="#000000" fill-opacity="0.0" d="m209.01797 157.7881l-18.23816 -0.022659302" fill-rule="evenodd"/><path stroke="#9900ff" stroke-width="4.0" stroke-linejoin="round" stroke-linecap="butt" d="m209.01797 157.7881l-18.23816 -0.022659302" fill-rule="evenodd"/><path fill="#000000" fill-opacity="0.0" d="m187.03224 212.46567l-45.16339 0.16993713" fill-rule="evenodd"/><path stroke="#9900ff" stroke-width="4.0" stroke-linejoin="round" stroke-linecap="butt" d="m187.03224 212.46567l-45.16339 0.16993713" fill-rule="evenodd"/><path fill="#000000" fill-opacity="0.0" d="m185.30003 213.3502l0 -20.460419" fill-rule="evenodd"/><path stroke="#9900ff" stroke-width="4.0" stroke-linejoin="round" stroke-linecap="butt" d="m185.30003 213.3502l0 -20.460419" fill-rule="evenodd"/><path fill="#000000" fill-opacity="0.0" d="m106.61547 84.56673l-0.5091858 152.03697" fill-rule="evenodd"/><path stroke="#9900ff" stroke-width="4.0" stroke-linejoin="round" stroke-linecap="butt" d="m106.61547 84.56673l-0.5091858 152.03697" fill-rule="evenodd"/><path fill="#000000" fill-opacity="0.0" d="m106.170235 85.551704l28.421913 -12.66597" fill-rule="evenodd"/><path stroke="#9900ff" stroke-width="4.0" stroke-linejoin="round" stroke-linecap="butt" d="m106.170235 85.551704l28.421913 -12.66597" fill-rule="evenodd"/><path fill="#000000" fill-opacity="0.0" d="m104.51778 236.85274l115.894135 -0.14727783" fill-rule="evenodd"/><path stroke="#9900ff" stroke-width="4.0" stroke-linejoin="round" stroke-linecap="butt" d="m104.51778 236.85274l115.894135 -0.14727783" fill-rule="evenodd"/><path fill="#000000" fill-opacity="0.0" d="m106.96767 85.647484l113.6568 0.29455566" fill-rule="evenodd"/><path stroke="#9900ff" stroke-width="4.0" stroke-linejoin="round" stroke-linecap="butt" d="m106.96767 85.647484l113.6568 0.29455566" fill-rule="evenodd"/><path fill="#000000" fill-opacity="0.0" d="m185.97342 110.16146l-42.478577 0" fill-rule="evenodd"/><path stroke="#9900ff" stroke-width="4.0" stroke-linejoin="round" stroke-linecap="butt" d="m185.97342 110.16146l-42.478577 0" fill-rule="evenodd"/><path fill="#000000" fill-opacity="0.0" d="m143.53223 109.05424l-0.07714844 103.8655" fill-rule="evenodd"/><path stroke="#9900ff" stroke-width="4.0" stroke-linejoin="round" stroke-linecap="butt" d="m143.53223 109.05424l-0.07714844 103.8655" fill-rule="evenodd"/><path fill="#000000" fill-opacity="0.0" d="m246.96603 73.24216l-113.209335 -0.18126678" fill-rule="evenodd"/><path stroke="#9900ff" stroke-width="4.0" stroke-linejoin="round" stroke-linecap="butt" d="m246.96603 73.24216l-113.209335 -0.18126678" fill-rule="evenodd"/><path fill="#000000" fill-opacity="0.0" d="m172.08699 110.27048l0 55.2975" fill-rule="evenodd"/><path stroke="#9900ff" stroke-width="4.0" stroke-linejoin="round" stroke-linecap="butt" d="m172.08699 110.27048l0 55.2975" fill-rule="evenodd"/><path fill="#000000" fill-opacity="0.0" d="m220.14789 69.016464l34.42415 -0.022651672" fill-rule="evenodd"/><path stroke="#9900ff" stroke-width="4.0" stroke-linejoin="round" stroke-linecap="butt" d="m220.14789 69.016464l34.42415 -0.022651672" fill-rule="evenodd"/><path fill="#000000" fill-opacity="0.0" d="m221.1314 68.35696l25.814255 -14.501289" fill-rule="evenodd"/><path stroke="#9900ff" stroke-width="4.0" stroke-linejoin="round" stroke-linecap="butt" d="m221.1314 68.35696l25.814255 -14.501289" fill-rule="evenodd"/><path fill="#000000" fill-opacity="0.0" d="m247.83435 72.057846l0.07714844 66.75125" fill-rule="evenodd"/><path stroke="#ff00ff" stroke-width="4.0" stroke-linejoin="round" stroke-linecap="butt" d="m247.83435 72.057846l0.07714844 66.75125" fill-rule="evenodd"/><path fill="#000000" fill-opacity="0.0" d="m220.8545 151.80168l28.020737 -13.889526" fill-rule="evenodd"/><path stroke="#ff00ff" stroke-width="4.0" stroke-linejoin="round" stroke-linecap="butt" d="m220.8545 151.80168l28.020737 -13.889526" fill-rule="evenodd"/><path fill="#000000" fill-opacity="0.0" d="m219.3859 170.4665l36.07515 -17.832062" fill-rule="evenodd"/><path stroke="#ff00ff" stroke-width="4.0" stroke-linejoin="round" stroke-linecap="butt" d="m219.3859 170.4665l36.07515 -17.832062" fill-rule="evenodd"/><path fill="#000000" fill-opacity="0.0" d="m246.89072 183.98607l8.872208 -5.086792" fill-rule="evenodd"/><path stroke="#ff00ff" stroke-width="4.0" stroke-linejoin="round" stroke-linecap="butt" d="m246.89072 183.98607l8.872208 -5.086792" fill-rule="evenodd"/><path fill="#000000" fill-opacity="0.0" d="m256.0169 178.06839l0.046295166 41.66855" fill-rule="evenodd"/><path stroke="#ff00ff" stroke-width="4.0" stroke-linejoin="round" stroke-linecap="butt" d="m256.0169 178.06839l0.046295166 41.66855" fill-rule="evenodd"/><path fill="#000000" fill-opacity="0.0" d="m247.36253 183.10153l-0.2931671 40.569626" fill-rule="evenodd"/><path stroke="#ff00ff" stroke-width="4.0" stroke-linejoin="round" stroke-linecap="butt" d="m247.36253 183.10153l-0.2931671 40.569626" fill-rule="evenodd"/><path fill="#000000" fill-opacity="0.0" d="m256.80325 219.93129l26.662903 -12.722626" fill-rule="evenodd"/><path stroke="#ff00ff" stroke-width="4.0" stroke-linejoin="round" stroke-linecap="butt" d="m256.80325 219.93129l26.662903 -12.722626" fill-rule="evenodd"/><path fill="#000000" fill-opacity="0.0" d="m281.5813 54.306362l1.1109619 153.84964" fill-rule="evenodd"/><path stroke="#ff00ff" stroke-width="4.0" stroke-linejoin="round" stroke-linecap="butt" d="m281.5813 54.306362l1.1109619 153.84964" fill-rule="evenodd"/><path fill="#000000" fill-opacity="0.0" d="m220.16118 86.021225l0.37031555 65.39177" fill-rule="evenodd"/><path stroke="#ff00ff" stroke-width="4.0" stroke-linejoin="round" stroke-linecap="butt" d="m220.16118 86.021225l0.37031555 65.39177" fill-rule="evenodd"/><path fill="#000000" fill-opacity="0.0" d="m220.06815 86.021225l27.943588 -13.085144" fill-rule="evenodd"/><path stroke="#ff00ff" stroke-width="4.0" stroke-linejoin="round" stroke-linecap="butt" d="m220.06815 86.021225l27.943588 -13.085144" fill-rule="evenodd"/><path fill="#000000" fill-opacity="0.0" d="m219.5188 236.9633l28.020737 -14.263382" fill-rule="evenodd"/><path stroke="#ff00ff" stroke-width="4.0" stroke-linejoin="round" stroke-linecap="butt" d="m219.5188 236.9633l28.020737 -14.263382" fill-rule="evenodd"/><path fill="#000000" fill-opacity="0.0" d="m254.66348 68.79144l-0.13887024 84.84389" fill-rule="evenodd"/><path stroke="#ff00ff" stroke-width="4.0" stroke-linejoin="round" stroke-linecap="butt" d="m254.66348 68.79144l-0.13887024 84.84389" fill-rule="evenodd"/><path fill="#000000" fill-opacity="0.0" d="m254.59924 68.96196l26.045715 -13.549641" fill-rule="evenodd"/><path stroke="#ff00ff" stroke-width="4.0" stroke-linejoin="round" stroke-linecap="butt" d="m254.59924 68.96196l26.045715 -13.549641" fill-rule="evenodd"/><path fill="#000000" fill-opacity="0.0" d="m220.53996 169.99542l0.21601868 66.955185" fill-rule="evenodd"/><path stroke="#ff00ff" stroke-width="4.0" stroke-linejoin="round" stroke-linecap="butt" d="m220.53996 169.99542l0.21601868 66.955185" fill-rule="evenodd"/><path fill="#000000" fill-opacity="0.0" d="m245.39774 219.76466l12.359375 -0.033996582" fill-rule="evenodd"/><path stroke="#9900ff" stroke-width="4.0" stroke-linejoin="round" stroke-linecap="butt" d="m245.39774 219.76466l12.359375 -0.033996582" fill-rule="evenodd"/><path fill="#000000" fill-opacity="0.0" d="m143.6895 212.63074l27.403534 -12.80191" fill-rule="evenodd"/><path stroke="#9900ff" stroke-width="4.0" stroke-linejoin="round" stroke-linecap="butt" d="m143.6895 212.63074l27.403534 -12.80191" fill-rule="evenodd"/><path fill="#000000" fill-opacity="0.0" d="m164.14145 169.88486l27.665863 -12.371414" fill-rule="evenodd"/><path stroke="#9900ff" stroke-width="4.0" stroke-linejoin="round" stroke-linecap="butt" d="m164.14145 169.88486l27.665863 -12.371414" fill-rule="evenodd"/><path fill="#000000" fill-opacity="0.0" d="m207.76973 158.25227l13.36232 -6.559555" fill-rule="evenodd"/><path stroke="#9900ff" stroke-width="4.0" stroke-linejoin="round" stroke-linecap="butt" d="m207.76973 158.25227l13.36232 -6.559555" fill-rule="evenodd"/><path fill="#000000" fill-opacity="0.0" d="m201.86116 52.321022l-21.833344 0.056648254" fill-rule="evenodd"/><path stroke="#9900ff" stroke-width="4.0" stroke-linejoin="round" stroke-linecap="butt" d="m201.86116 52.321022l-21.833344 0.056648254" fill-rule="evenodd"/><path fill="#000000" fill-opacity="0.0" d="m181.8954 59.37097l0.16972351 -7.8850784" fill-rule="evenodd"/><path stroke="#9900ff" stroke-width="4.0" stroke-linejoin="round" stroke-linecap="butt" d="m181.8954 59.37097l0.16972351 -7.8850784" fill-rule="evenodd"/><path fill="#000000" fill-opacity="0.0" d="m216.26425 58.39053l-35.766556 0.26057053" fill-rule="evenodd"/><path stroke="#9900ff" stroke-width="4.0" stroke-linejoin="round" stroke-linecap="butt" d="m216.26425 58.39053l-35.766556 0.26057053" fill-rule="evenodd"/><path fill="#000000" fill-opacity="0.0" d="m214.4011 65.38107l0.09257507 -7.4658966" fill-rule="evenodd"/><path stroke="#9900ff" stroke-width="4.0" stroke-linejoin="round" stroke-linecap="butt" d="m214.4011 65.38107l0.09257507 -7.4658966" fill-rule="evenodd"/><path fill="#000000" fill-opacity="0.0" d="m216.26425 63.86486l-19.873734 0.124622345" fill-rule="evenodd"/><path stroke="#9900ff" stroke-width="4.0" stroke-linejoin="round" stroke-linecap="butt" d="m216.26425 63.86486l-19.873734 0.124622345" fill-rule="evenodd"/><path fill="#000000" fill-opacity="0.0" d="m198.33469 72.84698l0.09257507 -7.465904" fill-rule="evenodd"/><path stroke="#9900ff" stroke-width="4.0" stroke-linejoin="round" stroke-linecap="butt" d="m198.33469 72.84698l0.09257507 -7.465904" fill-rule="evenodd"/><path fill="#000000" fill-opacity="0.0" d="m76.29044 22.003712l2.1447525 229.14307" fill-rule="evenodd"/><path stroke="#9900ff" stroke-width="4.0" stroke-linejoin="round" stroke-linecap="butt" d="m76.29044 22.003712l2.1447525 229.14307" fill-rule="evenodd"/><path fill="#000000" fill-opacity="0.0" d="m76.03392 22.782589l247.14104 -0.26057053" fill-rule="evenodd"/><path stroke="#9900ff" stroke-width="4.0" stroke-linejoin="round" stroke-linecap="butt" d="m76.03392 22.782589l247.14104 -0.26057053" fill-rule="evenodd"/><path fill="#000000" fill-opacity="0.0" d="m321.83835 22.003239l0.33944702 229.30167" fill-rule="evenodd"/><path stroke="#9900ff" stroke-width="4.0" stroke-linejoin="round" stroke-linecap="butt" d="m321.83835 22.003239l0.33944702 229.30167" fill-rule="evenodd"/><path fill="#000000" fill-opacity="0.0" d="m76.069275 250.48402l247.14105 -0.26057434" fill-rule="evenodd"/><path stroke="#9900ff" stroke-width="4.0" stroke-linejoin="round" stroke-linecap="butt" d="m76.069275 250.48402l247.14105 -0.26057434" fill-rule="evenodd"/><path fill="#000000" fill-opacity="0.0" d="m200.12906 53.17771l-0.07714844 -5.3700104" fill-rule="evenodd"/><path stroke="#9900ff" stroke-width="4.0" stroke-linejoin="round" stroke-linecap="butt" d="m200.12906 53.17771l-0.07714844 -5.3700104" fill-rule="evenodd"/><path fill="#000000" fill-opacity="0.0" d="m205.08206 46.75173l-9.890579 -0.04531479" fill-rule="evenodd"/><path stroke="#9900ff" stroke-width="4.0" stroke-linejoin="round" stroke-linecap="butt" d="m205.08206 46.75173l-9.890579 -0.04531479" fill-rule="evenodd"/><path fill="#000000" fill-opacity="0.0" d="m207.78552 23.441566l-0.03086853 4.271084" fill-rule="evenodd"/><path stroke="#9900ff" stroke-width="4.0" stroke-linejoin="round" stroke-linecap="butt" d="m207.78552 23.441566l-0.03086853 4.271084" fill-rule="evenodd"/><path fill="#000000" fill-opacity="0.0" d="m191.74097 23.441566l0.0617218 4.271084" fill-rule="evenodd"/><path stroke="#9900ff" stroke-width="4.0" stroke-linejoin="round" stroke-linecap="butt" d="m191.74097 23.441566l0.0617218 4.271084" fill-rule="evenodd"/><path fill="#000000" fill-opacity="0.0" d="m184.27481 27.192455l31.723923 0.090631485" fill-rule="evenodd"/><path stroke="#9900ff" stroke-width="4.0" stroke-linejoin="round" stroke-linecap="butt" d="m184.27481 27.192455l31.723923 0.090631485" fill-rule="evenodd"/><path fill="#000000" fill-opacity="0.0" d="m184.27417 34.976513l31.723923 0.09063339" fill-rule="evenodd"/><path stroke="#9900ff" stroke-width="4.0" stroke-linejoin="round" stroke-linecap="butt" d="m184.27417 34.976513l31.723923 0.09063339" fill-rule="evenodd"/><path fill="#000000" fill-opacity="0.0" d="m186.26077 26.706245l-0.030853271 8.360901" fill-rule="evenodd"/><path stroke="#9900ff" stroke-width="4.0" stroke-linejoin="round" stroke-linecap="butt" d="m186.26077 26.706245l-0.030853271 8.360901" fill-rule="evenodd"/><path fill="#000000" fill-opacity="0.0" d="m214.00635 26.706245l-0.03086853 8.360901" fill-rule="evenodd"/><path stroke="#9900ff" stroke-width="4.0" stroke-linejoin="round" stroke-linecap="butt" d="m214.00635 26.706245l-0.03086853 8.360901" fill-rule="evenodd"/><path fill="#000000" fill-opacity="0.0" d="m188.92372 35.221977l8.208725 11.872932" fill-rule="evenodd"/><path stroke="#9900ff" stroke-width="4.0" stroke-linejoin="round" stroke-linecap="butt" d="m188.92372 35.221977l8.208725 11.872932" fill-rule="evenodd"/><path fill="#000000" fill-opacity="0.0" d="m211.58128 34.862278l-8.579041 11.782299" fill-rule="evenodd"/><path stroke="#9900ff" stroke-width="4.0" stroke-linejoin="round" stroke-linecap="butt" d="m211.58128 34.862278l-8.579041 11.782299" fill-rule="evenodd"/><path fill="#000000" fill-opacity="0.0" d="m220.5394 576.31555l-0.14758301 6.3272705" fill-rule="evenodd"/><path stroke="#ffffff" stroke-width="8.0" stroke-linejoin="round" stroke-linecap="butt" d="m220.5394 576.31555l-0.14758301 6.3272705" fill-rule="evenodd"/><path fill="#000000" fill-opacity="0.0" d="m170.32051 701.9281l-0.042160034 7.0515747" fill-rule="evenodd"/><path stroke="#ffffff" stroke-width="8.0" stroke-linejoin="round" stroke-linecap="butt" d="m170.32051 701.9281l-0.042160034 7.0515747" fill-rule="evenodd"/><path fill="#000000" fill-opacity="0.0" d="m246.34053 580.6959l0.08433533 66.74524" fill-rule="evenodd"/><path stroke="#efefef" stroke-width="8.0" stroke-linejoin="round" stroke-linecap="butt" d="m246.34053 580.6959l0.08433533 66.74524" fill-rule="evenodd"/><path fill="#000000" fill-opacity="0.0" d="m281.43008 562.72754l-37.043655 -0.02130127" fill-rule="evenodd"/><path stroke="#ffffff" stroke-width="8.0" stroke-linejoin="round" stroke-linecap="butt" d="m281.43008 562.72754l-37.043655 -0.02130127" fill-rule="evenodd"/><path fill="#000000" fill-opacity="0.0" d="m220.87537 660.0479l-39.194168 -0.02130127" fill-rule="evenodd"/><path stroke="#ffffff" stroke-width="8.0" stroke-linejoin="round" stroke-linecap="butt" d="m220.87537 660.0479l-39.194168 -0.02130127" fill-rule="evenodd"/><path fill="#000000" fill-opacity="0.0" d="m183.41432 660.31104l0 -42.075317" fill-rule="evenodd"/><path stroke="#ffffff" stroke-width="8.0" stroke-linejoin="round" stroke-linecap="butt" d="m183.41432 660.31104l0 -42.075317" fill-rule="evenodd"/><path fill="#000000" fill-opacity="0.0" d="m185.28737 702.71436l-22.854477 0.06390381" fill-rule="evenodd"/><path stroke="#ffffff" stroke-width="8.0" stroke-linejoin="round" stroke-linecap="butt" d="m185.28737 702.71436l-22.854477 0.06390381" fill-rule="evenodd"/><path fill="#000000" fill-opacity="0.0" d="m185.44327 708.464l-16.445099 -0.04260254" fill-rule="evenodd"/><path stroke="#ffffff" stroke-width="8.0" stroke-linejoin="round" stroke-linecap="butt" d="m185.44327 708.464l-16.445099 -0.04260254" fill-rule="evenodd"/><path fill="#000000" fill-opacity="0.0" d="m219.57323 679.3116l-55.238678 -0.2982788" fill-rule="evenodd"/><path stroke="#ffffff" stroke-width="8.0" stroke-linejoin="round" stroke-linecap="butt" d="m219.57323 679.3116l-55.238678 -0.2982788" fill-rule="evenodd"/><path fill="#000000" fill-opacity="0.0" d="m164.34344 702.5999l-0.25300598 -25.202576" fill-rule="evenodd"/><path stroke="#ffffff" stroke-width="8.0" stroke-linejoin="round" stroke-linecap="butt" d="m164.34344 702.5999l-0.25300598 -25.202576" fill-rule="evenodd"/><path fill="#000000" fill-opacity="0.0" d="m219.59518 660.4208l27.766922 -13.890137" fill-rule="evenodd"/><path stroke="#efefef" stroke-width="8.0" stroke-linejoin="round" stroke-linecap="butt" d="m219.59518 660.4208l27.766922 -13.890137" fill-rule="evenodd"/><path fill="#000000" fill-opacity="0.0" d="m218.13934 679.0812l35.757553 -17.83142" fill-rule="evenodd"/><path stroke="#efefef" stroke-width="8.0" stroke-linejoin="round" stroke-linecap="butt" d="m218.13934 679.0812l35.757553 -17.83142" fill-rule="evenodd"/><path fill="#000000" fill-opacity="0.0" d="m245.4051 692.59753l8.791809 -5.091675" fill-rule="evenodd"/><path stroke="#efefef" stroke-width="8.0" stroke-linejoin="round" stroke-linecap="butt" d="m245.4051 692.59753l8.791809 -5.091675" fill-rule="evenodd"/><path fill="#000000" fill-opacity="0.0" d="m207.86154 666.40576l-18.0896 -0.02130127" fill-rule="evenodd"/><path stroke="#ffffff" stroke-width="8.0" stroke-linejoin="round" stroke-linecap="butt" d="m207.86154 666.40576l-18.0896 -0.02130127" fill-rule="evenodd"/><path fill="#000000" fill-opacity="0.0" d="m254.45197 686.6812l0.042175293 41.64923" fill-rule="evenodd"/><path stroke="#efefef" stroke-width="8.0" stroke-linejoin="round" stroke-linecap="butt" d="m254.45197 686.6812l0.042175293 41.64923" fill-rule="evenodd"/><path fill="#000000" fill-opacity="0.0" d="m186.0669 721.0704l-44.78128 0.17041016" fill-rule="evenodd"/><path stroke="#ffffff" stroke-width="8.0" stroke-linejoin="round" stroke-linecap="butt" d="m186.0669 721.0704l-44.78128 0.17041016" fill-rule="evenodd"/><path fill="#000000" fill-opacity="0.0" d="m184.34975 721.95465l0 -20.451782" fill-rule="evenodd"/><path stroke="#ffffff" stroke-width="8.0" stroke-linejoin="round" stroke-linecap="butt" d="m184.34975 721.95465l0 -20.451782" fill-rule="evenodd"/><path fill="#000000" fill-opacity="0.0" d="m245.87282 691.7132l-0.29516602 40.562683" fill-rule="evenodd"/><path stroke="#efefef" stroke-width="8.0" stroke-linejoin="round" stroke-linecap="butt" d="m245.87282 691.7132l-0.29516602 40.562683" fill-rule="evenodd"/><path fill="#000000" fill-opacity="0.0" d="m255.23149 728.5342l26.438675 -12.718445" fill-rule="evenodd"/><path stroke="#efefef" stroke-width="8.0" stroke-linejoin="round" stroke-linecap="butt" d="m255.23149 728.5342l26.438675 -12.718445" fill-rule="evenodd"/><path fill="#000000" fill-opacity="0.0" d="m279.79416 562.94867l1.096344 153.81439" fill-rule="evenodd"/><path stroke="#efefef" stroke-width="8.0" stroke-linejoin="round" stroke-linecap="butt" d="m279.79416 562.94867l1.096344 153.81439" fill-rule="evenodd"/><path fill="#000000" fill-opacity="0.0" d="m106.34908 593.20184l-0.50600433 152.00354" fill-rule="evenodd"/><path stroke="#ffffff" stroke-width="8.0" stroke-linejoin="round" stroke-linecap="butt" d="m106.34908 593.20184l-0.50600433 152.00354" fill-rule="evenodd"/><path fill="#000000" fill-opacity="0.0" d="m105.907715 594.1866l28.167511 -12.654541" fill-rule="evenodd"/><path stroke="#ffffff" stroke-width="8.0" stroke-linejoin="round" stroke-linecap="butt" d="m105.907715 594.1866l28.167511 -12.654541" fill-rule="evenodd"/><path fill="#000000" fill-opacity="0.0" d="m104.26962 745.4516l114.88379 -0.14910889" fill-rule="evenodd"/><path stroke="#ffffff" stroke-width="8.0" stroke-linejoin="round" stroke-linecap="butt" d="m104.26962 745.4516l114.88379 -0.14910889" fill-rule="evenodd"/><path fill="#000000" fill-opacity="0.0" d="m106.69822 594.2823l112.67004 0.2982788" fill-rule="evenodd"/><path stroke="#ffffff" stroke-width="8.0" stroke-linejoin="round" stroke-linecap="butt" d="m106.69822 594.2823l112.67004 0.2982788" fill-rule="evenodd"/><path fill="#000000" fill-opacity="0.0" d="m218.9079 594.65594l0.3584137 65.381836" fill-rule="evenodd"/><path stroke="#efefef" stroke-width="8.0" stroke-linejoin="round" stroke-linecap="butt" d="m218.9079 594.65594l0.3584137 65.381836" fill-rule="evenodd"/><path fill="#000000" fill-opacity="0.0" d="m185.01729 618.79047l-42.103683 0" fill-rule="evenodd"/><path stroke="#ffffff" stroke-width="8.0" stroke-linejoin="round" stroke-linecap="butt" d="m185.01729 618.79047l-42.103683 0" fill-rule="evenodd"/><path fill="#000000" fill-opacity="0.0" d="m142.94496 617.6835l-0.08432007 103.83545" fill-rule="evenodd"/><path stroke="#ffffff" stroke-width="8.0" stroke-linejoin="round" stroke-linecap="butt" d="m142.94496 617.6835l-0.08432007 103.83545" fill-rule="evenodd"/><path fill="#000000" fill-opacity="0.0" d="m245.47977 581.87994l-112.22728 -0.19171143" fill-rule="evenodd"/><path stroke="#ffffff" stroke-width="8.0" stroke-linejoin="round" stroke-linecap="butt" d="m245.47977 581.87994l-112.22728 -0.19171143" fill-rule="evenodd"/><path fill="#000000" fill-opacity="0.0" d="m218.81567 594.65594l27.70366 -13.080566" fill-rule="evenodd"/><path stroke="#efefef" stroke-width="8.0" stroke-linejoin="round" stroke-linecap="butt" d="m218.81567 594.65594l27.70366 -13.080566" fill-rule="evenodd"/><path fill="#000000" fill-opacity="0.0" d="m218.2711 745.56213l27.766922 -14.252319" fill-rule="evenodd"/><path stroke="#efefef" stroke-width="8.0" stroke-linejoin="round" stroke-linecap="butt" d="m218.2711 745.56213l27.766922 -14.252319" fill-rule="evenodd"/><path fill="#000000" fill-opacity="0.0" d="m171.25156 618.8995l0 55.28369" fill-rule="evenodd"/><path stroke="#ffffff" stroke-width="8.0" stroke-linejoin="round" stroke-linecap="butt" d="m171.25156 618.8995l0 55.28369" fill-rule="evenodd"/><path fill="#000000" fill-opacity="0.0" d="m253.1103 577.4303l-0.14758301 84.832275" fill-rule="evenodd"/><path stroke="#efefef" stroke-width="8.0" stroke-linejoin="round" stroke-linecap="butt" d="m253.1103 577.4303l-0.14758301 84.832275" fill-rule="evenodd"/><path fill="#000000" fill-opacity="0.0" d="m218.89471 577.6553l34.134125 -0.02130127" fill-rule="evenodd"/><path stroke="#ffffff" stroke-width="8.0" stroke-linejoin="round" stroke-linecap="butt" d="m218.89471 577.6553l34.134125 -0.02130127" fill-rule="evenodd"/><path fill="#000000" fill-opacity="0.0" d="m219.86967 576.9959l25.595322 -14.507996" fill-rule="evenodd"/><path stroke="#ffffff" stroke-width="8.0" stroke-linejoin="round" stroke-linecap="butt" d="m219.86967 576.9959l25.595322 -14.507996" fill-rule="evenodd"/><path fill="#000000" fill-opacity="0.0" d="m253.04663 577.60077l25.82724 -13.549316" fill-rule="evenodd"/><path stroke="#efefef" stroke-width="8.0" stroke-linejoin="round" stroke-linecap="butt" d="m253.04663 577.60077l25.82724 -13.549316" fill-rule="evenodd"/><path fill="#000000" fill-opacity="0.0" d="m219.28339 678.6102l0.21083069 66.93695" fill-rule="evenodd"/><path stroke="#efefef" stroke-width="8.0" stroke-linejoin="round" stroke-linecap="butt" d="m219.28339 678.6102l0.21083069 66.93695" fill-rule="evenodd"/><path fill="#000000" fill-opacity="0.0" d="m243.92511 728.3676l12.249481 -0.04260254" fill-rule="evenodd"/><path stroke="#ffffff" stroke-width="8.0" stroke-linejoin="round" stroke-linecap="butt" d="m243.92511 728.3676l12.249481 -0.04260254" fill-rule="evenodd"/><path fill="#000000" fill-opacity="0.0" d="m143.10088 721.23535l27.155502 -12.80365" fill-rule="evenodd"/><path stroke="#ffffff" stroke-width="8.0" stroke-linejoin="round" stroke-linecap="butt" d="m143.10088 721.23535l27.155502 -12.80365" fill-rule="evenodd"/><path fill="#000000" fill-opacity="0.0" d="m163.37508 678.49963l27.42958 -12.377563" fill-rule="evenodd"/><path stroke="#ffffff" stroke-width="8.0" stroke-linejoin="round" stroke-linecap="butt" d="m163.37508 678.49963l27.42958 -12.377563" fill-rule="evenodd"/><path fill="#000000" fill-opacity="0.0" d="m206.62415 666.8699l13.2404175 -6.5616455" fill-rule="evenodd"/><path stroke="#ffffff" stroke-width="8.0" stroke-linejoin="round" stroke-linecap="butt" d="m206.62415 666.8699l13.2404175 -6.5616455" fill-rule="evenodd"/><path fill="#000000" fill-opacity="0.0" d="m76.28763 531.65985l2.129425 229.08124" fill-rule="evenodd"/><path stroke="#ffffff" stroke-width="8.0" stroke-linejoin="round" stroke-linecap="butt" d="m76.28763 531.65985l2.129425 229.08124" fill-rule="evenodd"/><path fill="#000000" fill-opacity="0.0" d="m76.03333 531.4324l244.98987 -0.25567627" fill-rule="evenodd"/><path stroke="#ffffff" stroke-width="8.0" stroke-linejoin="round" stroke-linecap="butt" d="m76.03333 531.4324l244.98987 -0.25567627" fill-rule="evenodd"/><path fill="#000000" fill-opacity="0.0" d="m319.7319 533.036l0.6325073 225.97089" fill-rule="evenodd"/><path stroke="#ffffff" stroke-width="8.0" stroke-linejoin="round" stroke-linecap="butt" d="m319.7319 533.036l0.6325073 225.97089" fill-rule="evenodd"/><path fill="#000000" fill-opacity="0.0" d="m76.06838 759.07965l244.98987 -0.25561523" fill-rule="evenodd"/><path stroke="#ffffff" stroke-width="8.0" stroke-linejoin="round" stroke-linecap="butt" d="m76.06838 759.07965l244.98987 -0.25561523" fill-rule="evenodd"/><path fill="#000000" fill-opacity="0.0" d="m199.09386 561.81934l0.021087646 -3.9199219" fill-rule="evenodd"/><path stroke="#ffffff" stroke-width="8.0" stroke-linejoin="round" stroke-linecap="butt" d="m199.09386 561.81934l0.021087646 -3.9199219" fill-rule="evenodd"/><path fill="#000000" fill-opacity="0.0" d="m200.76692 560.9638l-21.65271 0.06390381" fill-rule="evenodd"/><path stroke="#ffffff" stroke-width="8.0" stroke-linejoin="round" stroke-linecap="butt" d="m200.76692 560.9638l-21.65271 0.06390381" fill-rule="evenodd"/><path fill="#000000" fill-opacity="0.0" d="m180.9747 568.012l0.16867065 -7.8824463" fill-rule="evenodd"/><path stroke="#ffffff" stroke-width="8.0" stroke-linejoin="round" stroke-linecap="butt" d="m180.9747 568.012l0.16867065 -7.8824463" fill-rule="evenodd"/><path fill="#000000" fill-opacity="0.0" d="m215.04485 567.03186l-35.462387 0.25561523" fill-rule="evenodd"/><path stroke="#ffffff" stroke-width="8.0" stroke-linejoin="round" stroke-linecap="butt" d="m215.04485 567.03186l-35.462387 0.25561523" fill-rule="evenodd"/><path fill="#000000" fill-opacity="0.0" d="m213.19788 574.02075l0.08433533 -7.456421" fill-rule="evenodd"/><path stroke="#ffffff" stroke-width="8.0" stroke-linejoin="round" stroke-linecap="butt" d="m213.19788 574.02075l0.08433533 -7.456421" fill-rule="evenodd"/><path fill="#000000" fill-opacity="0.0" d="m215.04485 572.5049l-19.691956 0.12780762" fill-rule="evenodd"/><path stroke="#ffffff" stroke-width="8.0" stroke-linejoin="round" stroke-linecap="butt" d="m215.04485 572.5049l-19.691956 0.12780762" fill-rule="evenodd"/><path fill="#000000" fill-opacity="0.0" d="m197.27112 581.48486l0.08432007 -7.45636" fill-rule="evenodd"/><path stroke="#ffffff" stroke-width="8.0" stroke-linejoin="round" stroke-linecap="butt" d="m197.27112 581.48486l0.08432007 -7.45636" fill-rule="evenodd"/><path fill="#000000" fill-opacity="0.0" d="m203.15625 556.39734l-8.201462 0.04260254" fill-rule="evenodd"/><path stroke="#ffffff" stroke-width="8.0" stroke-linejoin="round" stroke-linecap="butt" d="m203.15625 556.39734l-8.201462 0.04260254" fill-rule="evenodd"/><path fill="#000000" fill-opacity="0.0" d="m206.65738 534.3753l-0.030593872 4.2703857" fill-rule="evenodd"/><path stroke="#ffffff" stroke-width="8.0" stroke-linejoin="round" stroke-linecap="butt" d="m206.65738 534.3753l-0.030593872 4.2703857" fill-rule="evenodd"/><path fill="#000000" fill-opacity="0.0" d="m190.75203 534.3753l0.061187744 4.2703857" fill-rule="evenodd"/><path stroke="#ffffff" stroke-width="8.0" stroke-linejoin="round" stroke-linecap="butt" d="m190.75203 534.3753l0.061187744 4.2703857" fill-rule="evenodd"/><path fill="#000000" fill-opacity="0.0" d="m183.35066 538.1256l31.448685 0.09057617" fill-rule="evenodd"/><path stroke="#ffffff" stroke-width="8.0" stroke-linejoin="round" stroke-linecap="butt" d="m183.35066 538.1256l31.448685 0.09057617" fill-rule="evenodd"/><path fill="#000000" fill-opacity="0.0" d="m183.35002 545.9084l31.448685 0.09063721" fill-rule="evenodd"/><path stroke="#ffffff" stroke-width="8.0" stroke-linejoin="round" stroke-linecap="butt" d="m183.35002 545.9084l31.448685 0.09063721" fill-rule="evenodd"/><path fill="#000000" fill-opacity="0.0" d="m185.31938 537.63947l-0.030593872 8.359558" fill-rule="evenodd"/><path stroke="#ffffff" stroke-width="8.0" stroke-linejoin="round" stroke-linecap="butt" d="m185.31938 537.63947l-0.030593872 8.359558" fill-rule="evenodd"/><path fill="#000000" fill-opacity="0.0" d="m212.74904 537.63947l-0.030593872 8.359558" fill-rule="evenodd"/><path stroke="#ffffff" stroke-width="8.0" stroke-linejoin="round" stroke-linecap="butt" d="m212.74904 537.63947l-0.030593872 8.359558" fill-rule="evenodd"/><path fill="#000000" fill-opacity="0.0" d="m187.95923 546.1538l8.137497 11.871033" fill-rule="evenodd"/><path stroke="#ffffff" stroke-width="8.0" stroke-linejoin="round" stroke-linecap="butt" d="m187.95923 546.1538l8.137497 11.871033" fill-rule="evenodd"/><path fill="#000000" fill-opacity="0.0" d="m210.42021 545.7942l-8.504608 11.7803955" fill-rule="evenodd"/><path stroke="#ffffff" stroke-width="8.0" stroke-linejoin="round" stroke-linecap="butt" d="m210.42021 545.7942l-8.504608 11.7803955" fill-rule="evenodd"/><path fill="#000000" fill-opacity="0.0" d="m334.54758 531.6588l351.41916 0l0 229.08124l-351.41916 0z" fill-rule="evenodd"/><path fill="#efefef" d="m396.1882 617.3213q-3.140625 4.484375 -8.75 6.703125q-5.59375 2.21875 -13.046875 2.21875q-7.53125 0 -13.375 -3.53125q-5.828125 -3.53125 -9.03125 -10.046875q-3.1875 -6.515625 -3.28125 -15.109375l0 -5.375q0 -13.921875 6.5 -21.578125q6.5 -7.65625 18.265625 -7.65625q9.640625 0 15.515625 4.9375q5.890625 4.921875 7.203125 13.96875l-8.125 0q-2.28125 -12.21875 -14.5625 -12.21875q-8.15625 0 -12.375 5.734375q-4.203125 5.734375 -4.25 16.609375l0 5.03125q0 10.359375 4.734375 16.484375q4.75 6.109375 12.828125 6.109375q4.5625 0 7.984375 -1.015625q3.4375 -1.015625 5.6875 -3.421875l0 -13.84375l-14.265625 0l0 -6.59375l22.34375 0l0 22.59375zm56.901093 -53.53125l0 41.890625q-0.03125 8.71875 -5.46875 14.265625q-5.4375 5.53125 -14.75 6.21875l-2.15625 0.078125q-10.109375 0 -16.125 -5.453125q-6.0 -5.46875 -6.09375 -15.03125l0 -41.96875l8.046875 0l0 41.71875q0 6.6875 3.671875 10.390625q3.6875 3.703125 10.5 3.703125q6.890625 0 10.546875 -3.671875q3.671875 -3.6875 3.671875 -10.375l0 -41.765625l8.15625 0zm46.847412 45.53125l-25.8125 0l-5.796875 16.078125l-8.375 0l23.515625 -61.609375l7.109375 0l23.578125 61.609375l-8.34375 0l-5.875 -16.078125zm-23.359375 -6.6875l20.953125 0l-10.5 -28.8125l-10.453125 28.8125zm93.21716 22.765625l-8.171875 0l-31.015625 -47.46875l0 47.46875l-8.15625 0l0 -61.609375l8.15625 0l31.109375 47.6875l0 -47.6875l8.078125 0l0 61.609375zm48.448303 -16.078125l-25.8125 0l-5.796875 16.078125l-8.375 0l23.515625 -61.609375l7.109375 0l23.578125 61.609375l-8.34375 0l-5.875 -16.078125zm-23.359375 -6.6875l20.953125 0l-10.5 -28.8125l-10.453125 28.8125z" fill-rule="nonzero"/><path fill="#efefef" d="m395.9382 729.3994l-2.296875 0l0 -30.546875l-39.34375 0l0 30.546875l-2.28125 0l0 -61.609375l2.28125 0l0 28.78125l39.34375 0l0 -28.78125l2.296875 0l0 61.609375zm49.3768 -18.40625l-30.171875 0l-6.859375 18.40625l-2.5 0l23.0625 -61.609375l2.796875 0l23.0625 61.609375l-2.5 0l-6.890625 -18.40625zm-29.328125 -2.28125l28.46875 0l-14.203125 -38.171875l-14.265625 38.171875zm90.51395 1.8125q-0.890625 9.53125 -6.5625 14.625q-5.671875 5.09375 -15.40625 5.09375q-6.5625 0 -11.625 -3.3125q-5.046875 -3.328125 -7.84375 -9.4375q-2.78125 -6.125 -2.828125 -13.984375l0 -9.53125q0 -7.859375 2.75 -14.0625q2.75 -6.203125 7.84375 -9.578125q5.109375 -3.390625 11.703125 -3.390625q9.640625 0 15.359375 5.078125q5.71875 5.078125 6.609375 14.546875l-2.296875 0q-0.96875 -8.5 -5.921875 -12.921875q-4.953125 -4.421875 -13.75 -4.421875q-8.96875 0 -14.5 6.78125q-5.515625 6.765625 -5.515625 18.140625l0 9.0625q0 7.28125 2.453125 12.890625q2.453125 5.59375 7.046875 8.734375q4.59375 3.125 10.515625 3.125q8.84375 0 13.8125 -4.359375q4.96875 -4.359375 5.859375 -13.078125l2.296875 0zm26.398834 -13.53125l-9.859375 9.09375l0 23.3125l-2.28125 0l0 -61.609375l2.28125 0l0 35.625l10.15625 -9.9375l25.546875 -25.6875l3.3125 0l-27.46875 27.625l29.578125 33.984375l-2.96875 0l-28.296875 -32.40625zm79.75641 17.640625q0 -3.9375 -1.84375 -6.65625q-1.84375 -2.734375 -5.796875 -4.828125q-3.953125 -2.09375 -11.953125 -4.296875q-8.0 -2.203125 -12.0 -4.4375q-3.984375 -2.25 -5.859375 -5.203125q-1.859375 -2.96875 -1.859375 -7.203125q0 -6.734375 5.671875 -10.890625q5.671875 -4.171875 14.765625 -4.171875q5.921875 0 10.640625 2.3125q4.71875 2.296875 7.296875 6.46875q2.59375 4.171875 2.59375 9.40625l-2.296875 0q0 -6.890625 -5.078125 -11.390625q-5.078125 -4.515625 -13.15625 -4.515625q-8.125 0 -13.140625 3.625q-5.015625 3.609375 -5.015625 9.078125q0 5.53125 4.359375 8.921875q4.359375 3.390625 14.390625 6.0q10.03125 2.59375 14.6875 6.015625q5.921875 4.359375 5.921875 11.671875q0 4.65625 -2.625 8.234375q-2.625 3.578125 -7.453125 5.53125q-4.8125 1.9375 -10.828125 1.9375q-6.6875 0 -12.015625 -2.21875q-5.328125 -2.21875 -8.015625 -6.328125q-2.6875 -4.109375 -2.6875 -9.6875l2.28125 0q0 7.578125 5.671875 11.765625q5.671875 4.1875 14.765625 4.1875q8.078125 0 13.328125 -3.703125q5.25 -3.703125 5.25 -9.625z" fill-rule="nonzero"/><path fill="#000000" fill-opacity="0.0" d="m221.80699 576.8497l-0.13887024 6.3216553" fill-rule="evenodd"/><path stroke="#9900ff" stroke-width="4.0" stroke-linejoin="round" stroke-linecap="butt" d="m221.80699 576.8497l-0.13887024 6.3216553" fill-rule="evenodd"/><path fill="#000000" fill-opacity="0.0" d="m171.1478 702.49207l-0.046295166 7.046753" fill-rule="evenodd"/><path stroke="#9900ff" stroke-width="4.0" stroke-linejoin="round" stroke-linecap="butt" d="m171.1478 702.49207l-0.046295166 7.046753" fill-rule="evenodd"/><path fill="#000000" fill-opacity="0.0" d="m283.23154 563.2585l-37.37126 -0.022705078" fill-rule="evenodd"/><path stroke="#9900ff" stroke-width="4.0" stroke-linejoin="round" stroke-linecap="butt" d="m283.23154 563.2585l-37.37126 -0.022705078" fill-rule="evenodd"/><path fill="#000000" fill-opacity="0.0" d="m222.1459 660.6019l-39.531464 -0.022644043" fill-rule="evenodd"/><path stroke="#9900ff" stroke-width="4.0" stroke-linejoin="round" stroke-linecap="butt" d="m222.1459 660.6019l-39.531464 -0.022644043" fill-rule="evenodd"/><path fill="#000000" fill-opacity="0.0" d="m184.3564 660.8651l0 -42.087708" fill-rule="evenodd"/><path stroke="#9900ff" stroke-width="4.0" stroke-linejoin="round" stroke-linecap="butt" d="m184.3564 660.8651l0 -42.087708" fill-rule="evenodd"/><path fill="#000000" fill-opacity="0.0" d="m186.24588 703.2785l-23.052307 0.056640625" fill-rule="evenodd"/><path stroke="#9900ff" stroke-width="4.0" stroke-linejoin="round" stroke-linecap="butt" d="m186.24588 703.2785l-23.052307 0.056640625" fill-rule="evenodd"/><path fill="#000000" fill-opacity="0.0" d="m186.40315 709.02954l-16.587173 -0.033935547" fill-rule="evenodd"/><path stroke="#9900ff" stroke-width="4.0" stroke-linejoin="round" stroke-linecap="butt" d="m186.40315 709.02954l-16.587173 -0.033935547" fill-rule="evenodd"/><path fill="#000000" fill-opacity="0.0" d="m220.83235 679.87024l-55.717453 -0.2946167" fill-rule="evenodd"/><path stroke="#9900ff" stroke-width="4.0" stroke-linejoin="round" stroke-linecap="butt" d="m220.83235 679.87024l-55.717453 -0.2946167" fill-rule="evenodd"/><path fill="#000000" fill-opacity="0.0" d="m165.11832 703.16406l-0.26231384 -25.207336" fill-rule="evenodd"/><path stroke="#9900ff" stroke-width="4.0" stroke-linejoin="round" stroke-linecap="butt" d="m165.11832 703.16406l-0.26231384 -25.207336" fill-rule="evenodd"/><path fill="#000000" fill-opacity="0.0" d="m209.01797 666.9613l-18.23816 -0.022644043" fill-rule="evenodd"/><path stroke="#9900ff" stroke-width="4.0" stroke-linejoin="round" stroke-linecap="butt" d="m209.01797 666.9613l-18.23816 -0.022644043" fill-rule="evenodd"/><path fill="#000000" fill-opacity="0.0" d="m187.03224 721.6389l-45.16339 0.16992188" fill-rule="evenodd"/><path stroke="#9900ff" stroke-width="4.0" stroke-linejoin="round" stroke-linecap="butt" d="m187.03224 721.6389l-45.16339 0.16992188" fill-rule="evenodd"/><path fill="#000000" fill-opacity="0.0" d="m185.30003 722.52344l0 -20.460388" fill-rule="evenodd"/><path stroke="#9900ff" stroke-width="4.0" stroke-linejoin="round" stroke-linecap="butt" d="m185.30003 722.52344l0 -20.460388" fill-rule="evenodd"/><path fill="#000000" fill-opacity="0.0" d="m106.61547 593.7399l-0.5091858 152.03699" fill-rule="evenodd"/><path stroke="#9900ff" stroke-width="4.0" stroke-linejoin="round" stroke-linecap="butt" d="m106.61547 593.7399l-0.5091858 152.03699" fill-rule="evenodd"/><path fill="#000000" fill-opacity="0.0" d="m106.170235 594.7249l28.421913 -12.665955" fill-rule="evenodd"/><path stroke="#9900ff" stroke-width="4.0" stroke-linejoin="round" stroke-linecap="butt" d="m106.170235 594.7249l28.421913 -12.665955" fill-rule="evenodd"/><path fill="#000000" fill-opacity="0.0" d="m104.51778 746.02594l115.894135 -0.14727783" fill-rule="evenodd"/><path stroke="#9900ff" stroke-width="4.0" stroke-linejoin="round" stroke-linecap="butt" d="m104.51778 746.02594l115.894135 -0.14727783" fill-rule="evenodd"/><path fill="#000000" fill-opacity="0.0" d="m106.96767 594.8207l113.6568 0.2946167" fill-rule="evenodd"/><path stroke="#9900ff" stroke-width="4.0" stroke-linejoin="round" stroke-linecap="butt" d="m106.96767 594.8207l113.6568 0.2946167" fill-rule="evenodd"/><path fill="#000000" fill-opacity="0.0" d="m185.97342 619.3347l-42.478577 0" fill-rule="evenodd"/><path stroke="#9900ff" stroke-width="4.0" stroke-linejoin="round" stroke-linecap="butt" d="m185.97342 619.3347l-42.478577 0" fill-rule="evenodd"/><path fill="#000000" fill-opacity="0.0" d="m143.53223 618.2275l-0.07714844 103.86548" fill-rule="evenodd"/><path stroke="#9900ff" stroke-width="4.0" stroke-linejoin="round" stroke-linecap="butt" d="m143.53223 618.2275l-0.07714844 103.86548" fill-rule="evenodd"/><path fill="#000000" fill-opacity="0.0" d="m246.96603 582.4154l-113.209335 -0.18127441" fill-rule="evenodd"/><path stroke="#9900ff" stroke-width="4.0" stroke-linejoin="round" stroke-linecap="butt" d="m246.96603 582.4154l-113.209335 -0.18127441" fill-rule="evenodd"/><path fill="#000000" fill-opacity="0.0" d="m172.08699 619.4437l0 55.297485" fill-rule="evenodd"/><path stroke="#9900ff" stroke-width="4.0" stroke-linejoin="round" stroke-linecap="butt" d="m172.08699 619.4437l0 55.297485" fill-rule="evenodd"/><path fill="#000000" fill-opacity="0.0" d="m220.14789 578.1897l34.42415 -0.022644043" fill-rule="evenodd"/><path stroke="#9900ff" stroke-width="4.0" stroke-linejoin="round" stroke-linecap="butt" d="m220.14789 578.1897l34.42415 -0.022644043" fill-rule="evenodd"/><path fill="#000000" fill-opacity="0.0" d="m221.1314 577.5302l25.814255 -14.501343" fill-rule="evenodd"/><path stroke="#9900ff" stroke-width="4.0" stroke-linejoin="round" stroke-linecap="butt" d="m221.1314 577.5302l25.814255 -14.501343" fill-rule="evenodd"/><path fill="#000000" fill-opacity="0.0" d="m247.83435 581.2311l0.07714844 66.75122" fill-rule="evenodd"/><path stroke="#ff00ff" stroke-width="4.0" stroke-linejoin="round" stroke-linecap="butt" d="m247.83435 581.2311l0.07714844 66.75122" fill-rule="evenodd"/><path fill="#000000" fill-opacity="0.0" d="m220.8545 660.9749l28.020737 -13.889526" fill-rule="evenodd"/><path stroke="#ff00ff" stroke-width="4.0" stroke-linejoin="round" stroke-linecap="butt" d="m220.8545 660.9749l28.020737 -13.889526" fill-rule="evenodd"/><path fill="#000000" fill-opacity="0.0" d="m219.3859 679.6397l36.07515 -17.832031" fill-rule="evenodd"/><path stroke="#ff00ff" stroke-width="4.0" stroke-linejoin="round" stroke-linecap="butt" d="m219.3859 679.6397l36.07515 -17.832031" fill-rule="evenodd"/><path fill="#000000" fill-opacity="0.0" d="m246.89072 693.1593l8.872208 -5.086792" fill-rule="evenodd"/><path stroke="#ff00ff" stroke-width="4.0" stroke-linejoin="round" stroke-linecap="butt" d="m246.89072 693.1593l8.872208 -5.086792" fill-rule="evenodd"/><path fill="#000000" fill-opacity="0.0" d="m256.0169 687.24164l0.046295166 41.668518" fill-rule="evenodd"/><path stroke="#ff00ff" stroke-width="4.0" stroke-linejoin="round" stroke-linecap="butt" d="m256.0169 687.24164l0.046295166 41.668518" fill-rule="evenodd"/><path fill="#000000" fill-opacity="0.0" d="m247.36253 692.2748l-0.2931671 40.56958" fill-rule="evenodd"/><path stroke="#ff00ff" stroke-width="4.0" stroke-linejoin="round" stroke-linecap="butt" d="m247.36253 692.2748l-0.2931671 40.56958" fill-rule="evenodd"/><path fill="#000000" fill-opacity="0.0" d="m256.80325 729.1045l26.662903 -12.722595" fill-rule="evenodd"/><path stroke="#ff00ff" stroke-width="4.0" stroke-linejoin="round" stroke-linecap="butt" d="m256.80325 729.1045l26.662903 -12.722595" fill-rule="evenodd"/><path fill="#000000" fill-opacity="0.0" d="m281.5813 563.4796l1.1109619 153.84961" fill-rule="evenodd"/><path stroke="#ff00ff" stroke-width="4.0" stroke-linejoin="round" stroke-linecap="butt" d="m281.5813 563.4796l1.1109619 153.84961" fill-rule="evenodd"/><path fill="#000000" fill-opacity="0.0" d="m220.16118 595.19446l0.37031555 65.391785" fill-rule="evenodd"/><path stroke="#ff00ff" stroke-width="4.0" stroke-linejoin="round" stroke-linecap="butt" d="m220.16118 595.19446l0.37031555 65.391785" fill-rule="evenodd"/><path fill="#000000" fill-opacity="0.0" d="m220.06815 595.19446l27.943588 -13.085144" fill-rule="evenodd"/><path stroke="#ff00ff" stroke-width="4.0" stroke-linejoin="round" stroke-linecap="butt" d="m220.06815 595.19446l27.943588 -13.085144" fill-rule="evenodd"/><path fill="#000000" fill-opacity="0.0" d="m219.5188 746.13654l28.020737 -14.263367" fill-rule="evenodd"/><path stroke="#ff00ff" stroke-width="4.0" stroke-linejoin="round" stroke-linecap="butt" d="m219.5188 746.13654l28.020737 -14.263367" fill-rule="evenodd"/><path fill="#000000" fill-opacity="0.0" d="m254.66348 577.96466l-0.13887024 84.84387" fill-rule="evenodd"/><path stroke="#ff00ff" stroke-width="4.0" stroke-linejoin="round" stroke-linecap="butt" d="m254.66348 577.96466l-0.13887024 84.84387" fill-rule="evenodd"/><path fill="#000000" fill-opacity="0.0" d="m254.59924 578.1352l26.045715 -13.549622" fill-rule="evenodd"/><path stroke="#ff00ff" stroke-width="4.0" stroke-linejoin="round" stroke-linecap="butt" d="m254.59924 578.1352l26.045715 -13.549622" fill-rule="evenodd"/><path fill="#000000" fill-opacity="0.0" d="m220.53996 679.16864l0.21601868 66.9552" fill-rule="evenodd"/><path stroke="#ff00ff" stroke-width="4.0" stroke-linejoin="round" stroke-linecap="butt" d="m220.53996 679.16864l0.21601868 66.9552" fill-rule="evenodd"/><path fill="#000000" fill-opacity="0.0" d="m245.39774 728.93787l12.359375 -0.033996582" fill-rule="evenodd"/><path stroke="#9900ff" stroke-width="4.0" stroke-linejoin="round" stroke-linecap="butt" d="m245.39774 728.93787l12.359375 -0.033996582" fill-rule="evenodd"/><path fill="#000000" fill-opacity="0.0" d="m143.6895 721.80396l27.403534 -12.80188" fill-rule="evenodd"/><path stroke="#9900ff" stroke-width="4.0" stroke-linejoin="round" stroke-linecap="butt" d="m143.6895 721.80396l27.403534 -12.80188" fill-rule="evenodd"/><path fill="#000000" fill-opacity="0.0" d="m164.14145 679.0581l27.665863 -12.37146" fill-rule="evenodd"/><path stroke="#9900ff" stroke-width="4.0" stroke-linejoin="round" stroke-linecap="butt" d="m164.14145 679.0581l27.665863 -12.37146" fill-rule="evenodd"/><path fill="#000000" fill-opacity="0.0" d="m207.76973 667.42554l13.36232 -6.5595703" fill-rule="evenodd"/><path stroke="#9900ff" stroke-width="4.0" stroke-linejoin="round" stroke-linecap="butt" d="m207.76973 667.42554l13.36232 -6.5595703" fill-rule="evenodd"/><path fill="#000000" fill-opacity="0.0" d="m201.86116 561.49426l-21.833344 0.056640625" fill-rule="evenodd"/><path stroke="#9900ff" stroke-width="4.0" stroke-linejoin="round" stroke-linecap="butt" d="m201.86116 561.49426l-21.833344 0.056640625" fill-rule="evenodd"/><path fill="#000000" fill-opacity="0.0" d="m181.8954 568.5442l0.16972351 -7.885071" fill-rule="evenodd"/><path stroke="#9900ff" stroke-width="4.0" stroke-linejoin="round" stroke-linecap="butt" d="m181.8954 568.5442l0.16972351 -7.885071" fill-rule="evenodd"/><path fill="#000000" fill-opacity="0.0" d="m216.26425 567.5638l-35.766556 0.26055908" fill-rule="evenodd"/><path stroke="#9900ff" stroke-width="4.0" stroke-linejoin="round" stroke-linecap="butt" d="m216.26425 567.5638l-35.766556 0.26055908" fill-rule="evenodd"/><path fill="#000000" fill-opacity="0.0" d="m214.4011 574.5543l0.09257507 -7.4659424" fill-rule="evenodd"/><path stroke="#9900ff" stroke-width="4.0" stroke-linejoin="round" stroke-linecap="butt" d="m214.4011 574.5543l0.09257507 -7.4659424" fill-rule="evenodd"/><path fill="#000000" fill-opacity="0.0" d="m216.26425 573.0381l-19.873734 0.12463379" fill-rule="evenodd"/><path stroke="#9900ff" stroke-width="4.0" stroke-linejoin="round" stroke-linecap="butt" d="m216.26425 573.0381l-19.873734 0.12463379" fill-rule="evenodd"/><path fill="#000000" fill-opacity="0.0" d="m198.33469 582.0202l0.09257507 -7.4658813" fill-rule="evenodd"/><path stroke="#9900ff" stroke-width="4.0" stroke-linejoin="round" stroke-linecap="butt" d="m198.33469 582.0202l0.09257507 -7.4658813" fill-rule="evenodd"/><path fill="#000000" fill-opacity="0.0" d="m76.29044 531.17694l2.1447525 229.14307" fill-rule="evenodd"/><path stroke="#9900ff" stroke-width="4.0" stroke-linejoin="round" stroke-linecap="butt" d="m76.29044 531.17694l2.1447525 229.14307" fill-rule="evenodd"/><path fill="#000000" fill-opacity="0.0" d="m76.03392 531.9558l247.14104 -0.26055908" fill-rule="evenodd"/><path stroke="#9900ff" stroke-width="4.0" stroke-linejoin="round" stroke-linecap="butt" d="m76.03392 531.9558l247.14104 -0.26055908" fill-rule="evenodd"/><path fill="#000000" fill-opacity="0.0" d="m321.83835 531.17645l0.33944702 229.3017" fill-rule="evenodd"/><path stroke="#9900ff" stroke-width="4.0" stroke-linejoin="round" stroke-linecap="butt" d="m321.83835 531.17645l0.33944702 229.3017" fill-rule="evenodd"/><path fill="#000000" fill-opacity="0.0" d="m76.069275 759.6572l247.14105 -0.26055908" fill-rule="evenodd"/><path stroke="#9900ff" stroke-width="4.0" stroke-linejoin="round" stroke-linecap="butt" d="m76.069275 759.6572l247.14105 -0.26055908" fill-rule="evenodd"/><path fill="#000000" fill-opacity="0.0" d="m200.12906 562.35095l-0.07714844 -5.369995" fill-rule="evenodd"/><path stroke="#9900ff" stroke-width="4.0" stroke-linejoin="round" stroke-linecap="butt" d="m200.12906 562.35095l-0.07714844 -5.369995" fill-rule="evenodd"/><path fill="#000000" fill-opacity="0.0" d="m205.08206 555.925l-9.890579 -0.04534912" fill-rule="evenodd"/><path stroke="#9900ff" stroke-width="4.0" stroke-linejoin="round" stroke-linecap="butt" d="m205.08206 555.925l-9.890579 -0.04534912" fill-rule="evenodd"/><path fill="#000000" fill-opacity="0.0" d="m207.78552 532.6148l-0.03086853 4.271057" fill-rule="evenodd"/><path stroke="#9900ff" stroke-width="4.0" stroke-linejoin="round" stroke-linecap="butt" d="m207.78552 532.6148l-0.03086853 4.271057" fill-rule="evenodd"/><path fill="#000000" fill-opacity="0.0" d="m191.74097 532.6148l0.0617218 4.271057" fill-rule="evenodd"/><path stroke="#9900ff" stroke-width="4.0" stroke-linejoin="round" stroke-linecap="butt" d="m191.74097 532.6148l0.0617218 4.271057" fill-rule="evenodd"/><path fill="#000000" fill-opacity="0.0" d="m184.27481 536.36566l31.723923 0.09063721" fill-rule="evenodd"/><path stroke="#9900ff" stroke-width="4.0" stroke-linejoin="round" stroke-linecap="butt" d="m184.27481 536.36566l31.723923 0.09063721" fill-rule="evenodd"/><path fill="#000000" fill-opacity="0.0" d="m184.27417 544.1497l31.723923 0.09063721" fill-rule="evenodd"/><path stroke="#9900ff" stroke-width="4.0" stroke-linejoin="round" stroke-linecap="butt" d="m184.27417 544.1497l31.723923 0.09063721" fill-rule="evenodd"/><path fill="#000000" fill-opacity="0.0" d="m186.26077 535.87946l-0.030853271 8.360901" fill-rule="evenodd"/><path stroke="#9900ff" stroke-width="4.0" stroke-linejoin="round" stroke-linecap="butt" d="m186.26077 535.87946l-0.030853271 8.360901" fill-rule="evenodd"/><path fill="#000000" fill-opacity="0.0" d="m214.00635 535.87946l-0.03086853 8.360901" fill-rule="evenodd"/><path stroke="#9900ff" stroke-width="4.0" stroke-linejoin="round" stroke-linecap="butt" d="m214.00635 535.87946l-0.03086853 8.360901" fill-rule="evenodd"/><path fill="#000000" fill-opacity="0.0" d="m188.92372 544.3952l8.208725 11.872925" fill-rule="evenodd"/><path stroke="#9900ff" stroke-width="4.0" stroke-linejoin="round" stroke-linecap="butt" d="m188.92372 544.3952l8.208725 11.872925" fill-rule="evenodd"/><path fill="#000000" fill-opacity="0.0" d="m211.58128 544.0355l-8.579041 11.782288" fill-rule="evenodd"/><path stroke="#9900ff" stroke-width="4.0" stroke-linejoin="round" stroke-linecap="butt" d="m211.58128 544.0355l-8.579041 11.782288" fill-rule="evenodd"/></g></svg>